<svg width="745" height="571" viewBox="0 0 745 571" fill="none" xmlns="http://www.w3.org/2000/svg">
<path d="M298.898 133.806C354.086 131.068 409.979 130.343 463.12 113.047C488.98 104.634 513.895 92.5121 535.788 76.2589C557.315 60.2763 571.487 36.5811 594.419 23.4082C622.421 7.33009 654.986 8.31707 682.013 25.9234C764.79 79.8566 749.365 210.583 722.917 289.556C677.125 426.276 531.701 509.627 400.815 546.973C303.302 574.791 194.165 569.745 112.11 505.106C42.8459 450.544 9.36839 364.232 32.0464 277.712C51.7409 202.567 126.559 161.696 197.418 145.562C230.309 138.072 264.54 135.509 298.898 133.806Z" fill="#661FFE"/>
<path d="M283.828 126.726C290.068 126.417 296.318 126.132 302.574 125.847C353.611 123.522 404.997 121.18 454.117 105.191C480.956 96.458 506.823 83.8728 529.557 66.9928C539.39 59.6914 547.748 50.8425 556.014 42.0897C557.16 40.8763 558.305 39.6648 559.451 38.4595C568.879 28.5449 578.447 19.0417 590.259 12.2558C619.11 -4.31186 652.651 -3.29558 680.498 14.8477C723.198 42.6723 740.61 90.3274 743.904 141.331C747.199 192.332 736.369 246.593 722.681 287.472C675.312 428.915 524.837 515.223 389.267 553.91C288.323 582.711 175.424 577.464 90.5693 510.612C18.9418 454.18 -15.6581 364.933 7.7849 275.484L7.30124 275.357L7.78491 275.484C28.1192 197.887 105.402 155.603 178.764 138.897C212.799 131.146 248.231 128.491 283.828 126.726Z" stroke="#661FFE"/>
</svg>
