<?xml version="1.0" encoding="UTF-8" standalone="no"?>
<!DOCTYPE svg PUBLIC "-//W3C//DTD SVG 1.1//EN" "http://www.w3.org/Graphics/SVG/1.1/DTD/svg11.dtd">
<svg width="100%" height="100%" viewBox="0 0 1236 409" version="1.1" xmlns="http://www.w3.org/2000/svg" xmlns:xlink="http://www.w3.org/1999/xlink" xml:space="preserve" xmlns:serif="http://www.serif.com/" style="fill-rule:evenodd;clip-rule:evenodd;stroke-linejoin:round;stroke-miterlimit:2;">
    <g transform="matrix(1,0,0,1,-7210.28,-238.072)">
        <g transform="matrix(0.360615,0,0,0.174374,5851.25,225.499)">
            <g transform="matrix(2.77304,0,0,5.73479,3708.18,1197.61)">
                <g transform="matrix(1.01286,0,0,1,0,0)">
                    <text x="0px" y="0px" style="font-family:'Lovelo-Black', 'Lovelo';font-weight:900;font-size:268.871px;fill:rgb(25,115,231);">m</text>
                </g>
                <g transform="matrix(1.01286,0,0,1,-2.53285,0)">
                    <text x="196.895px" y="0px" style="font-family:'Lovelo-Black', 'Lovelo';font-weight:900;font-size:268.871px;fill:white;">i<tspan x="253.626px 417.907px " y="0px 0px ">nd</tspan></text>
                </g>
            </g>
            <g transform="matrix(2.77304,0,0,5.73479,6219.14,2405.94)">
                <g transform="matrix(1.01286,0,0,1,-0.66912,0)">
                    <text x="52.015px" y="0px" style="font-family:'Lovelo-Black', 'Lovelo';font-weight:900;font-size:268.871px;fill:white;">D<tspan x="216.295px " y="0px ">S</tspan></text>
                </g>
            </g>
            <g transform="matrix(2.77304,0,0,5.73479,5324.25,1199.15)">
                <g transform="matrix(1.01286,0,0,1,0,0)">
                    <text x="0px" y="0px" style="font-family:'Lovelo-Black', 'Lovelo';font-weight:900;font-size:268.871px;fill:rgb(232,0,0);">y</text>
                </g>
                <g transform="matrix(1.01286,0,0,1,-1.84058,0)">
                    <text x="143.08px" y="0px" style="font-family:'Lovelo-Black', 'Lovelo';font-weight:900;font-size:268.871px;fill:white;">O<tspan x="345.809px 501.217px " y="0px 0px ">UR</tspan></text>
                </g>
            </g>
            <g transform="matrix(2.77304,0,0,5.73479,5937.47,2409.52)">
                <path d="M4.357,-0.017L48.475,-0.017L56.1,-20.72L120.642,-20.72L128.54,-0.017L172.385,-0.017L90.414,-199.217L86.329,-199.217L4.357,-0.017ZM70.261,-56.715L88.507,-106.725L106.209,-56.715L70.261,-56.715Z" style="fill:rgb(25,115,231);fill-rule:nonzero;"/>
                <clipPath id="_clip1">
                    <path d="M4.357,-0.017L48.475,-0.017L56.1,-20.72L120.642,-20.72L128.54,-0.017L172.385,-0.017L90.414,-199.217L86.329,-199.217L4.357,-0.017ZM70.261,-56.715L88.507,-106.725L106.209,-56.715L70.261,-56.715Z" clip-rule="nonzero"/>
                </clipPath>
                <g clip-path="url(#_clip1)">
                    <g transform="matrix(1,0,0,1,-7987.43,-645.658)">
                        <path d="M8076.14,538.314L8057.74,591.623L8027.99,672.745L7968.53,661.673L8057.76,438.577L8115.1,418.485L8076.14,538.314Z" style="fill:rgb(241,193,7);"/>
                    </g>
                    <g transform="matrix(0.698086,0,0,0.698086,-5481.36,-507.79)">
                        <circle cx="7890.27" cy="703.683" r="43.471" style="fill:rgb(53,161,86);"/>
                    </g>
                    <g transform="matrix(1,0,0,1,-7987.43,-645.658)">
                        <path d="M8092.53,585.985L8108.76,626.57L8095.34,650.27L8044.1,630.202L8043.04,626.404L8058.48,586.907L8071.69,578.599L8092.53,585.985Z" style="fill:white;"/>
                    </g>
                </g>
            </g>
        </g>
    </g>
</svg>
