<svg width="247" height="90" viewBox="0 0 247 90" fill="none" xmlns="http://www.w3.org/2000/svg">
<path d="M56.891 172.513C62.6315 187.161 66.5491 202.399 73.8889 217.053C82.9301 235.101 99.0859 251.865 119.253 256.7C144.194 262.679 164.648 245.604 177.875 226.034C189.821 208.36 198.291 188.328 211.155 171.296C231.353 144.547 253.248 124.243 253.291 87.9793C253.356 34.0571 203.243 -13.3894 148.336 4.03179C136.851 7.67469 126.223 13.9698 114.39 16.2902C88.996 21.2684 65.4975 4.30041 40.2446 5.9077C10.9395 7.77389 -3.2569 35.0176 -2.90786 61.8191C-2.44721 97.4813 23.6403 119.927 43.3208 146.863C49.2833 155.02 53.419 163.659 56.891 172.513Z" fill="#661FFE"/>
</svg>
