<svg width="224" height="248" viewBox="0 0 224 248" fill="none" xmlns="http://www.w3.org/2000/svg">
<path d="M178.058 286.949C196.06 292.659 213.278 300.656 232.462 304.77C256.09 309.836 283.74 306.774 303.115 290.364C327.076 270.071 326.046 236.236 317.356 207.684C309.507 181.9 296.885 157.75 290.316 131.547C279.996 90.4011 276.986 52.5974 242.897 24.188C192.208 -18.0557 110.725 -4.99654 86.7539 63.6035C81.7385 77.9521 79.8486 93.5172 73.3336 107.179C59.3497 136.498 26.1097 146.752 9.05799 173.292C-10.7291 204.092 4.46894 239.616 29.9436 260.232C63.8375 287.666 104.134 279.105 143.947 280.471C156.005 280.882 167.174 283.499 178.058 286.949Z" fill="#661FFE"/>
</svg>
