<svg width="1920" height="788" viewBox="0 0 1920 788" fill="none" xmlns="http://www.w3.org/2000/svg">
<g opacity="0.2">
<g opacity="0.45">
<path opacity="0.45" d="M1712.64 708.023C1689.18 676.529 1672.69 641.177 1657.16 605.508C1640.09 566.245 1632.27 524.816 1632.9 482.013C1633.06 471.92 1633.54 461.669 1635.12 451.734C1637.5 436.938 1641.52 422.512 1650.08 409.724C1665.09 387.424 1687.17 374.478 1711.11 364.86C1756.35 346.735 1804.54 340.869 1852.1 332.732C1872.97 329.191 1893.95 326.073 1914.87 322.956C1920.69 322.11 1926.55 321.423 1932.42 320.789V340.5C1901.45 346.101 1871.12 351.438 1841.05 357.357C1807.81 363.909 1775.21 372.681 1745.25 389.168C1720.68 402.696 1701.02 421.085 1688.97 446.608C1672.22 482.066 1670.95 519.691 1677.19 557.42C1683.47 595.573 1701.23 629.657 1720.41 662.684C1740.12 696.662 1765.28 726.518 1793.97 753.415C1813.63 771.858 1834.82 788.081 1859.07 800.076C1882.38 811.596 1906.95 818.782 1932.52 822.851V851.862H1895.69C1869.64 843.302 1845.12 831.201 1822.61 814.925C1804.01 801.503 1787.42 785.28 1769.45 770.907C1747.05 753.046 1729.61 730.799 1712.64 708.023Z" fill="url(#paint0_linear_215_41)"/>
<path opacity="0.45" d="M1932.47 148.891C1910.44 153.013 1888.66 155.602 1865.89 152.696C1821.5 146.989 1791.96 122.259 1773.78 83.4717C1761.26 56.6802 1758.14 27.6694 1764.06 -1.65854C1770.98 -36.0065 1789 -64.1719 1816.43 -85.2035C1851.25 -111.942 1891.15 -116.17 1932.47 -110.621V-87.0001C1919.74 -87.7399 1907.74 -88.4269 1895.8 -88.5326C1874.61 -88.744 1854.69 -82.0329 1837.51 -70.5131C1799.57 -45.0956 1778.12 0.455177 1790.9 50.022C1803.64 99.4831 1838.52 126.169 1888.14 127.279C1902.61 127.596 1917.15 125.112 1932.52 122.84V148.891H1932.47Z" fill="url(#paint1_linear_215_41)"/>
<path opacity="0.45" d="M1384.44 635.839C1370.64 605.56 1363.09 573.801 1362.14 540.563C1361.71 526.665 1361.77 512.767 1362.19 498.87C1362.45 489.464 1362.93 479.952 1364.57 470.704C1371.49 430.596 1384.75 392.497 1403.46 356.458C1415.98 332.255 1430.2 308.952 1443.14 285.014C1465.76 243.162 1485 199.989 1494.61 152.959C1501.01 121.781 1504.81 90.2341 1505.55 58.5811C1506.08 35.2245 1503.6 11.7621 1501.64 -11.5945C1499.05 -42.085 1491.5 -71.5186 1479.5 -99.5782C1474.32 -111.679 1467.08 -122.829 1455.99 -131.284C1452.55 -133.873 1449.06 -135.987 1445.47 -137.731H1528.54C1528.12 -101.058 1529.65 -64.3848 1532.4 -27.7645C1534.25 -3.35098 1533.03 21.2739 1532.66 45.7931C1532.4 63.6541 1532.03 81.5679 1530.44 99.376C1528.33 123.314 1525.74 147.199 1522.04 170.926C1514.17 220.862 1495.78 267.047 1470.25 310.59C1449.7 345.625 1427.24 379.55 1411.54 417.28C1397.12 452.051 1388.35 488.143 1387.08 525.661C1386.5 542.254 1389.46 558.952 1390.99 575.598C1393.52 602.971 1403.25 628.282 1415.82 652.168C1428.88 677.004 1443.94 700.836 1458.63 724.774C1484.73 767.26 1511.15 809.534 1537.42 851.914H1511.89C1488.38 812.546 1464.97 773.125 1440.61 734.233C1420.53 702.21 1400.13 670.398 1384.44 635.839Z" fill="url(#paint2_linear_215_41)"/>
<path opacity="0.45" d="M1514.11 661.308C1491.44 627.647 1482.51 590.392 1493.45 550.285C1499.37 528.672 1508.78 508.697 1530.6 497.97C1542.7 492.052 1558.55 495.275 1566.8 505.844C1571.5 511.868 1575.89 518.367 1579.11 525.237C1591.26 551.394 1602.78 577.816 1614.67 604.079C1623.55 623.684 1633.54 642.813 1641.52 662.788C1662.87 716.106 1697.48 759.385 1742.29 794.261C1767.5 813.866 1792.6 833.841 1819.39 851.86H1632.69C1619.06 816.455 1601.73 782.953 1579.32 752.04C1557.44 721.972 1534.93 692.221 1514.11 661.308Z" fill="url(#paint3_linear_215_41)"/>
<path opacity="0.45" d="M1147.96 789.56C1178.51 801.767 1199.8 824.119 1215.76 851.968H1154.73C1140.62 842.773 1120.85 841.135 1107.22 851.968H1039.42C1043.39 836.802 1049.57 822.693 1060.72 810.275C1083.44 784.91 1115.89 776.772 1147.96 789.56Z" fill="url(#paint4_linear_215_41)"/>
<path opacity="0.45" d="M1428.14 628.494C1412.86 592.455 1409.8 554.249 1414.66 515.198C1418.25 486.452 1425.39 458.762 1439.02 433.556C1455.77 402.59 1474.32 372.522 1493.29 342.771C1517.23 305.2 1534.99 265.25 1541.59 221.232C1547.14 184.401 1551.1 147.252 1554.22 110.156C1556.39 84.3157 1555.96 58.2112 1556.65 32.2653C1557.39 3.46577 1557.44 -25.3337 1558.98 -54.0803C1559.98 -73.5266 1561.88 -93.1314 1565.37 -112.261C1566.96 -121.033 1569.07 -129.54 1571.61 -137.731H1610.92C1607.86 -131.601 1605.06 -125.313 1602.47 -118.866C1588.83 -84.835 1584.5 -48.9017 1581.54 -12.8099C1579.9 7.11195 1579.69 27.1395 1579.32 47.1142C1578.42 98.7947 1577.47 150.475 1577.26 202.209C1577.15 233.069 1575.89 263.718 1570.81 294.208C1566.8 318.569 1560.24 342.084 1545.34 362.27C1533.29 378.599 1520.88 394.663 1507.88 410.252C1475.91 448.563 1452.39 490.204 1447.53 541.356C1445.2 565.875 1447.58 589.232 1453.82 612.43C1463.65 648.944 1484.68 679.857 1505.71 710.506C1534.83 752.887 1564.26 795.108 1588.78 840.395C1590.84 844.199 1592.8 848.057 1594.75 852.02H1561.88C1556.55 841.769 1551.1 831.57 1544.92 821.847C1518.71 780.312 1491.28 739.517 1465.44 697.718C1451.7 675.419 1438.34 652.485 1428.14 628.494Z" fill="url(#paint5_linear_215_41)"/>
<path opacity="0.45" d="M1027.53 740.471C1061.25 709.135 1100.67 700.099 1143.89 716.005C1177.77 728.476 1204.51 751.727 1225.7 780.738C1238.33 798.07 1250 816.195 1261.05 834.638C1264.32 840.133 1267.12 845.893 1269.82 851.97H1243.29C1227.44 819.26 1206.99 789.932 1176.6 768.267C1156.68 754.052 1134.44 745.28 1110.23 745.122C1085.08 744.963 1062.36 754.475 1044.29 772.494C1024.26 792.469 1010.99 816.407 1005.87 844.519C1005.39 847.056 1004.92 849.539 1004.44 852.023H972.947C978.02 808.48 995.141 770.592 1027.53 740.471Z" fill="url(#paint6_linear_215_41)"/>
<path opacity="0.45" d="M1932.47 790.934C1930.52 790.987 1928.72 790.987 1926.92 790.722C1920.74 789.93 1914.5 788.82 1908.43 787.499C1849.77 774.764 1807.23 738.302 1770.77 693.28C1750.22 667.915 1734.31 639.644 1720.36 610.105C1709.1 586.272 1703.77 561.066 1702.92 535.12C1702.5 522.015 1704.67 508.699 1706.99 495.752C1711.9 468.538 1724.96 444.917 1744.51 425.947C1762.69 408.297 1784.78 395.985 1808.87 387.371C1845.07 374.425 1882.64 367.555 1920.21 360.368C1924.23 359.628 1928.3 359.206 1932.47 358.889V380.607C1931.57 380.713 1930.68 380.819 1929.78 381.03C1904.99 386.42 1880.05 391.229 1855.64 397.834C1826.52 405.708 1798.99 417.862 1776.27 438.365C1751.27 460.876 1737.74 489.94 1733.94 522.808C1730.08 556.416 1736.69 588.809 1752.91 618.718C1770.93 652.009 1792.54 682.711 1820.66 708.499C1839.05 725.355 1859.44 738.672 1882.96 747.233C1899.07 753.098 1915.46 757.59 1932.47 758.012V790.934Z" fill="url(#paint7_linear_215_41)"/>
<path opacity="0.45" d="M1932.47 729.317C1912.6 728.524 1894.69 723.557 1877.41 715.948C1840.21 699.672 1812.99 672.299 1791.06 638.85C1769.4 605.717 1753.76 571.316 1759.41 529.887C1764.27 494.06 1780.86 465.683 1809.45 444.757C1843.8 419.551 1883.91 408.771 1925.39 402.483C1927.72 402.113 1930.09 401.796 1932.47 401.479V426.843C1930.94 426.949 1929.46 427.055 1928.09 427.319C1926.02 427.742 1924.12 428.798 1922.11 429.115C1887.29 434.136 1855 445.761 1827.37 467.902C1805.7 485.182 1792.17 508.222 1788.95 535.7C1785.73 563.654 1791.12 590.076 1806.71 614.648C1830.33 651.849 1860.39 680.279 1903.88 691.957C1913.13 694.441 1922.75 695.55 1932.47 696.924V729.317Z" fill="url(#paint8_linear_215_41)"/>
<path opacity="0.45" d="M1896.86 615.284C1908.06 621.361 1920 624.109 1932.47 624.69V665.96C1920.27 663.583 1908.59 661.733 1897.54 658.034C1871.54 649.315 1851.36 631.982 1835.24 610.264C1812.04 578.928 1809.56 539.19 1832.39 506.639C1846.76 486.135 1866.21 472.396 1889.46 463.941C1903.14 458.921 1917.04 454.535 1932.47 453.531V490.944C1907.11 493.692 1885.6 504.578 1869.75 524.922C1857.54 540.564 1854.95 558.583 1861.34 577.448C1867.47 595.256 1880.84 606.565 1896.86 615.284Z" fill="url(#paint9_linear_215_41)"/>
<path opacity="0.45" d="M1636.97 -68.5058C1625.66 -35.2146 1623.02 -0.338211 1621.81 34.4854C1621.17 52.2935 1622.71 70.2073 1623.76 88.0155C1624.77 105.031 1626.51 122.046 1627.88 139.062C1630.21 167.914 1636.55 195.974 1647.28 222.765C1659.91 254.366 1681.63 276.454 1715.39 286.653C1741.18 294.421 1767.65 294.632 1793.92 296.376C1813.05 297.644 1832.44 295.742 1851.67 294.473C1865.94 293.575 1880.1 291.726 1894.27 289.823C1906.9 288.079 1919.53 286.018 1932.47 283.905V303.827C1906.31 307.684 1880.37 311.753 1854.37 314.924C1825.31 318.464 1796.14 321.371 1766.91 323.273C1741.71 324.964 1716.4 325.809 1691.14 325.281C1676.55 324.964 1662.13 321.529 1649.44 312.863C1631.37 300.497 1623.87 281.791 1618.11 262.133C1609.28 231.854 1606.38 200.518 1603.42 169.341C1600.83 141.81 1599.14 114.12 1599.19 86.483C1599.3 53.1918 1601.78 19.9536 1603.05 -13.3376C1604.1 -41.4501 1610.39 -68.4001 1619.96 -94.7688C1625.56 -110.252 1632.53 -124.572 1640.67 -137.836H1672.96C1657.05 -116.752 1645.43 -93.4477 1636.97 -68.5058Z" fill="url(#paint10_linear_215_41)"/>
<path opacity="0.45" d="M1882.64 -129.383C1854.9 -126.054 1829.74 -117.916 1807.13 -101.429C1780.23 -81.8243 1761.84 -55.9841 1750.27 -25.0708C1740.33 1.50923 1739.96 28.8819 1744.19 56.5189C1749.74 92.8221 1765.22 123.365 1794.13 147.145C1829.32 176.103 1870.33 176.42 1912.23 172.932C1918.94 172.351 1925.6 171.136 1932.47 169.814V192.378C1913.34 194.756 1894.79 197.293 1876.09 198.403C1864.09 199.09 1851.78 196.395 1839.73 194.492C1806.44 189.261 1778.38 173.249 1757.61 147.462C1720.78 101.647 1712.8 47.7469 1722.74 -8.42528C1730.5 -52.3907 1754.76 -87.6371 1790.16 -114.904C1802.48 -124.363 1815.53 -132.078 1829.64 -137.785H1932.47V-127.798C1915.98 -129.859 1899.66 -131.391 1882.64 -129.383Z" fill="url(#paint11_linear_215_41)"/>
<path opacity="0.45" d="M1875.56 47.4314C1890.57 56.4148 1914.66 56.4148 1932.47 45.8461V93.9862C1912.44 99.8518 1891.99 102.177 1871.38 96.417C1840.15 87.645 1816.43 61.9104 1814.26 24.4447C1811.94 -15.8218 1837.04 -46.8406 1870.01 -58.6247C1890.94 -66.1284 1911.65 -66.3398 1932.47 -62.9578V-21.5288C1913.24 -29.2967 1882.64 -27.183 1867.1 -8.42372C1851.99 9.7543 1859.55 37.814 1875.56 47.4314Z" fill="url(#paint12_linear_215_41)"/>
<path opacity="0.45" d="M1716.98 121.199C1732.78 160.039 1758.88 188.785 1798.99 204.163C1814.1 209.922 1829.37 213.938 1845.28 214.995C1860.97 215.999 1876.88 216.581 1892.52 215.471C1905.78 214.52 1919 212.353 1932.52 210.187V230.743C1918.47 233.226 1904.36 235.974 1890.25 236.45C1863.72 237.242 1837.04 238.669 1810.51 232.803C1770.88 224.084 1738.11 205.378 1715.13 171.453C1690.29 134.885 1682.47 93.0335 1679.67 50.072C1678.72 35.1703 1680.67 20.0043 1681.57 4.99689C1682.89 -17.5143 1688.97 -38.81 1698.22 -59.3132C1712.06 -90.015 1731.4 -116.384 1757.72 -137.785H1792.59C1757.35 -116.384 1731.35 -84.4665 1714.44 -42.6147C1702.66 -13.4982 1699.12 16.7809 1701.6 48.3282C1703.5 73.4815 1707.52 97.9479 1716.98 121.199Z" fill="url(#paint13_linear_215_41)"/>
<path opacity="0.45" d="M1932.47 267.891C1906.15 271.22 1880.31 275.078 1854.42 276.663C1820.13 278.777 1785.99 275.765 1752.43 266.993C1714.86 257.164 1687.75 235.393 1670.21 200.886C1651.5 163.949 1644.05 124 1641.89 83.5746C1639.77 44.5764 1638.72 5.10257 1647.54 -33.6843C1656.42 -72.7353 1673.28 -107.717 1699.38 -137.785H1730.66C1724.22 -131.55 1718.09 -124.839 1712.22 -117.652C1680.09 -78.1253 1665.03 -32.416 1661.91 17.3622C1659.43 57.5229 1662.86 97.4723 1674.38 136.365C1683.74 168.124 1697.48 197.187 1724.06 218.8C1752.8 242.21 1786.73 251.721 1822.45 254.046C1857.38 256.371 1892.47 255.367 1927.03 248.181C1928.82 247.811 1930.62 247.547 1932.42 247.335V267.891H1932.47Z" fill="url(#paint14_linear_215_41)"/>
<path opacity="0.45" d="M714.438 646.618C723.316 624.635 732.722 602.758 739.591 580.088C749.473 547.484 756.924 514.246 759.302 480.056C761.151 453.212 764.48 426.473 765.22 399.629C765.907 372.996 763.265 346.258 763.582 319.572C764.269 267.997 760.464 216.316 767.387 164.847C771.191 136.365 777.427 108.622 789.37 82.5705C805.751 46.7957 829.213 16.4638 859.175 -9.53497C887.499 -34.107 919.522 -51.281 953.976 -64.8617C1011.94 -87.6899 1072.71 -99.6324 1133.59 -111.258C1155.04 -115.38 1176.66 -118.867 1198.06 -123.412C1215.28 -127.058 1232.14 -131.972 1248.68 -137.785H1365.31C1347.23 -133.505 1329.37 -128.009 1311.46 -123.042C1269.29 -111.364 1228.02 -96.6204 1184.32 -90.3321C1147.91 -85.1534 1111.82 -77.4384 1075.88 -69.3534C1041.22 -61.5854 1007.24 -51.1753 975.113 -35.5338C948.216 -22.4287 924.119 -5.36038 901.344 14.033C876.138 35.5402 856.269 60.9577 840.574 89.7572C816.425 134.145 808.076 182.867 803.109 232.328C800.784 255.632 799.885 279.041 798.776 302.451C797.772 324.169 797.349 345.888 796.556 367.606C796.028 381.927 795.658 396.3 794.39 410.62C791.906 438.733 789.158 466.793 785.935 494.799C781.654 532.265 772.354 568.621 759.513 604.026C744.4 645.666 728.336 686.99 713.381 728.683C701.28 762.45 691.98 797.062 686.325 832.572C685.321 839.019 684.106 845.413 682.838 851.86H648.701C650.656 841.239 652.506 831.093 654.725 821.053C667.83 760.706 691.346 703.741 714.438 646.618Z" fill="url(#paint15_linear_215_41)"/>
<path opacity="0.45" d="M151.659 256.111C196.259 269.692 235.204 291.463 263.792 328.4C293.754 367.134 307.388 412.474 309.766 461.036C310.453 474.564 308.603 488.251 307.863 501.884C306.119 532.956 296.819 561.967 284.401 590.238C272.723 616.765 260.621 643.239 250.687 670.454C229.867 727.313 221.306 786.497 221.148 846.949C221.148 848.64 221.148 850.279 221.148 851.97H10.9379C16.1165 836.328 21.348 821.215 25.1527 805.785C30.437 784.278 35.3514 762.348 37.2538 740.365C38.9448 720.602 37.9407 700.257 35.1929 680.547C32.4451 660.678 28.0062 640.492 20.7667 621.838C10.9379 596.473 -1.53305 572.165 -13 547.382V478.422C-1.00462 508.754 12.946 538.082 29.9086 566.036C44.4933 590.079 59.2365 614.123 72.6058 638.853C85.5524 662.739 96.7023 687.628 108.962 711.935C112.872 719.703 117.047 727.577 122.331 734.447C129.254 743.483 135.542 743.853 143.521 735.503C151.923 726.679 159.955 717.167 166.719 707.021C191.767 669.185 216.286 631.033 240.964 592.933C261.943 560.54 271.771 524.448 274.572 486.401C276.105 465.37 273.251 444.497 268.337 423.993C255.02 368.297 223.209 326.762 171.739 301.556C130.152 281.211 85.8166 273.866 39.8959 281.687C19.9212 285.069 1.32048 291.727 -13 305.202V253.257C1.32048 248.079 16.1694 244.855 31.3354 244.274C71.866 242.689 112.08 244.063 151.659 256.111Z" fill="url(#paint16_linear_215_41)"/>
<path opacity="0.45" d="M957.252 742.637C976.593 708.342 1001.32 678.856 1035.35 658.194C1073.3 635.154 1112.03 635.366 1150.82 656.08C1187.75 675.791 1215.76 705.542 1240.33 738.41C1258.14 762.242 1274.52 787.343 1290.01 812.813C1297.56 825.231 1303.9 838.336 1310.51 851.97H1289.05C1276.64 824.121 1260.47 798.334 1242.76 773.551C1222.37 744.962 1199.54 718.382 1169.15 699.782C1148.7 687.311 1126.88 677.376 1102.36 676.742C1066.06 675.791 1036.68 692.278 1011.68 716.427C988.482 738.833 972.365 766.153 961.268 796.643C954.716 814.663 950.752 833.158 948.057 851.97H922.534C923.01 845.734 923.538 839.604 924.595 833.633C930.249 801.452 941.188 771.12 957.252 742.637Z" fill="url(#paint17_linear_215_41)"/>
<path opacity="0.45" d="M1.79643 387.53C-0.58151 435.194 16.434 477.152 39.0508 517.841C52.3144 541.673 68.4844 562.863 88.4591 581.305C104.365 595.943 122.12 606.036 144.843 604.821C163.708 603.817 179.085 595.415 192.454 583.155C215.705 561.806 229.127 534.962 233.778 503.837C235.257 493.85 235.838 483.704 236.842 473.664C237.424 440.426 227.965 410.517 209.364 383.302C186.853 350.381 155.464 330.829 116.942 322.216C88.9875 315.98 61.4034 316.244 35.7745 330.882C14.1617 343.247 3.06466 362.641 1.79643 387.53ZM61.879 433.556C62.4603 425.788 62.0376 419.975 63.4643 414.691C70.7038 387.688 92.0524 380.396 117.153 385.997C163.866 396.407 191.239 452.791 171.264 496.545C158.529 524.393 134.168 531.369 111.71 517.471C80.5855 498.183 64.6269 468.221 61.879 433.556Z" fill="url(#paint18_linear_215_41)"/>
<path opacity="0.45" d="M9.66994 184.824C29.2747 185.089 48.9324 185.828 68.4843 186.938C86.5566 187.942 104.84 188.523 122.648 191.377C156.415 196.873 189.918 203.689 222.099 216.266C263.792 232.542 299.039 257.167 324.403 294.21C355.317 339.338 367.84 390.701 371.011 444.443C372.121 462.885 369.954 481.538 369.214 500.139C368.263 523.971 363.349 547.222 355.739 569.628C339.094 618.772 320.282 667.229 313.042 718.962C310.03 740.364 307.071 761.818 306.014 783.325C304.904 806.154 305.591 829.035 305.697 851.916H265.008C265.589 844.148 266.17 836.75 266.117 829.352C265.906 796.378 269.288 763.826 274.414 731.275C281.442 686.675 293.754 643.661 311.404 602.285C335.183 546.535 344.061 488.884 336.24 428.642C331.749 393.872 321.761 361.268 304.27 330.724C284.137 295.584 255.602 269.69 219.88 251.46C165.346 223.611 106.109 215.791 46.026 214.1C26.4212 213.518 6.76357 216.055 -12.9469 218.168V185.3C-5.33749 184.983 2.16622 184.719 9.66994 184.824Z" fill="url(#paint19_linear_215_41)"/>
<path opacity="0.45" d="M88.9343 87.2221C127.933 87.3278 166.984 86.6936 205.982 85.1612C231.082 84.21 256.13 81.7792 281.072 78.82C302.262 76.3364 322.924 70.9464 342.158 61.3289C364.828 49.9677 378.99 26.4525 376.031 5.36813C373.389 -13.8139 367.84 -32.0976 359.28 -49.6415C344.061 -80.7133 325.671 -109.83 305.38 -137.731H355.211C361.34 -130.544 367.523 -123.358 373.759 -116.224C389.717 -97.993 405.993 -80.132 422.638 -62.5352C439.02 -45.2027 456.299 -28.7157 477.384 -17.0373C490.7 -9.69215 505.549 -5.46471 520.398 -6.09882C539.474 -6.89146 556.86 -14.7122 573.188 -24.9638C609.333 -47.7392 645.478 -70.5145 682.151 -92.4973C713.328 -111.204 746.25 -125.894 780.228 -137.731H898.226C868.793 -129.857 839.623 -120.874 811.088 -109.724C760.411 -89.9608 714.227 -62.5881 673.802 -26.3377C635.438 8.11597 604.947 48.8052 586.293 97.1566C579.424 114.965 574.192 133.618 570.652 152.378C567.164 170.926 574.826 188.047 582.911 204.639C598.659 236.979 615.886 268.685 629.096 302.029C651.819 359.364 664.713 418.812 659.323 481.379C657.42 503.467 654.091 524.921 646.323 545.583C640.51 561.119 633.165 575.915 620.219 587.012C604.049 600.91 586.928 602.654 571.128 585.849C566.107 580.512 561.246 574.964 556.966 568.993C544.442 551.607 526.951 553.298 514.85 565.293C488.322 591.451 469.88 622.417 457.885 657.452C447.792 686.885 440.024 716.9 439.178 748.078C438.333 779.519 438.914 811.014 439.02 842.456C439.02 845.626 439.178 848.744 439.39 851.914H402.558C401.237 835.163 399.757 818.835 399.757 802.506C399.81 781.21 401.501 759.809 403.879 738.619C406.204 717.904 409.692 697.296 413.708 676.845C420.525 642.127 434.581 609.84 448.373 577.447C465.97 536.071 476.644 492.793 479.55 448.088C481.664 415.219 479.233 382.351 473.896 349.588C467.027 307.314 456.934 266.096 439.971 226.675C431.833 207.757 421.212 190.372 407.525 175.206C394.103 160.41 377.035 150.581 358.381 143.606C332.647 133.988 305.961 129.021 278.694 126.696C258.191 124.899 237.74 122.257 217.237 120.566C195.625 118.769 173.959 117.554 152.24 116.339C124.234 114.753 96.2267 113.432 68.2198 112.005C53.5294 111.266 38.7862 110.684 24.0958 109.786C16.8035 109.363 9.45831 108.624 2.21881 107.672C-2.85413 107.038 -7.92706 106.298 -13 105.559V77.816C0.844889 79.7184 14.5312 81.5679 28.2705 82.9418C48.4565 85.1083 68.7483 87.1692 88.9343 87.2221Z" fill="url(#paint20_linear_215_41)"/>
<path opacity="0.45" d="M129.676 26.3997C153.614 22.7535 176.971 17.5749 198.531 6.21362C218.981 -4.56636 233.355 -19.5738 237.265 -43.9873C239.907 -60.6329 237.265 -76.0102 232.615 -91.3347C227.542 -107.822 220.831 -123.146 212.852 -137.731H261.15C281.336 -106.395 298.616 -73.8437 301.945 -35.0568C303.16 -20.6835 301.099 -7.47273 293.332 4.83971C281.442 23.7047 262.947 33.5863 243.131 41.1958C205.559 55.7276 165.874 59.2681 126.189 61.0648C99.9258 62.2802 73.5043 60.8534 47.2413 59.0567C27.108 57.6828 7.08051 54.6179 -12.947 52.1871V21.8552C11.0966 26.7696 34.6646 29.676 58.444 30.3101C82.2762 30.997 106.003 29.993 129.676 26.3997Z" fill="url(#paint21_linear_215_41)"/>
<path opacity="0.45" d="M122.807 140.385C148.436 142.815 173.959 145.827 199.535 148.734C234.411 152.75 268.284 160.676 301.047 173.781C341.154 189.793 371.539 216.32 392.888 253.627C420.789 302.402 432.467 355.932 436.378 410.994C438.544 441.273 437.699 471.817 433.101 502.254C427.87 536.972 418.358 570.21 405.887 602.762C384.803 657.877 372.807 714.895 371.275 773.973C371.169 777.831 370.747 781.688 370.641 785.546C370.218 797.806 369.373 810.012 369.637 822.272C369.848 832.101 370.482 841.877 371.169 851.917H337.191C336.61 843.99 336.134 836.487 336.187 828.93C336.346 811.069 337.191 793.155 338.248 775.347C339.358 756.905 339.992 738.304 342.74 720.073C348.13 683.982 355.792 648.207 369.056 614.07C387.075 567.621 399.335 519.851 401.184 470.073C402.082 445.342 400.022 420.294 396.745 395.722C392.993 367.346 385.384 339.656 374.129 313.129C358.276 275.927 335.342 244.327 301.628 221.235C270.767 200.097 236.261 187.521 200.063 180.07C172.796 174.468 145.107 170.664 117.47 167.229C93.5845 164.217 69.4881 162.315 45.4445 160.888C26.0511 159.725 6.55197 159.408 -12.8943 158.88V130.239C12.8931 132.141 38.6806 134.149 64.468 136.052C83.8614 137.531 103.413 138.535 122.807 140.385Z" fill="url(#paint22_linear_215_41)"/>
<path opacity="0.45" d="M-12.9469 797.274V603.287C10.0398 668.126 7.02779 732.753 -12.9469 797.274Z" fill="url(#paint23_linear_215_41)"/>
<path opacity="0.45" d="M837.722 694.338C850.51 663.002 865.306 632.459 878.622 601.334C906.735 535.545 925.917 466.743 947.001 398.628C961.744 350.964 977.439 303.828 1002.7 260.391C1023.47 224.722 1049.83 194.178 1084.71 171.773C1118.79 149.79 1155.36 136.738 1196.95 144.506C1230.35 150.741 1247.1 170.029 1249.11 206.121C1249.95 221.392 1249.53 236.823 1249.16 252.147C1248.84 265.094 1247.89 277.987 1247.04 290.934C1245.04 321.266 1242.02 351.545 1241.07 381.93C1240.33 404.652 1241.81 427.533 1243.03 450.256C1243.87 466.901 1244.77 483.758 1247.63 500.14C1251.38 521.541 1255.87 542.996 1262.32 563.71C1269.61 587.12 1277.59 610.635 1288.58 632.459C1302.64 660.254 1319.86 686.465 1335.93 713.256C1357.86 749.876 1380.16 786.232 1401.87 822.958C1407.48 832.47 1412.65 842.193 1417.78 852.075H1398.12C1391.25 838.97 1384.33 825.812 1376.72 813.13C1346.86 763.457 1317.17 713.732 1286.31 664.693C1258.99 621.256 1239.01 574.807 1226.96 525.187C1219.09 492.742 1213.28 459.768 1207.57 426.846C1202.6 398.364 1199.43 369.617 1194.89 341.082C1191.08 317.567 1186.33 294.316 1174.49 273.126C1166.14 258.171 1145.59 245.647 1130.16 247.708C1115.52 249.664 1101.78 254.472 1088.99 262.399C1062.04 279.15 1043.07 303.246 1026.48 329.457C1000.8 369.934 983.569 414.375 965.708 458.552C947.635 503.258 929.774 548.069 910.434 592.245C893.841 630.134 874.5 666.86 857.855 704.748C838.461 748.925 825.039 794.951 819.861 843.144C819.544 846.156 819.174 849.116 818.751 852.128H795.976C797.719 840.502 799.569 828.877 801.471 817.251C808.341 774.66 821.552 733.971 837.722 694.338Z" fill="url(#paint24_linear_215_41)"/>
<path opacity="0.45" d="M939.866 680.916C955.613 657.083 974.425 635.259 992.233 612.854C1008.88 591.875 1027.74 573.116 1050.57 558.742C1070.23 546.377 1091.42 541.251 1113.35 550.922C1125.24 556.153 1137.29 563.128 1146.43 572.217C1166.25 591.928 1185.16 612.695 1202.65 634.519C1227.02 664.851 1250.79 695.817 1272.88 727.84C1293.76 758.014 1312.62 789.667 1331.43 821.214C1337.3 831.043 1342.32 841.4 1347.34 852.022H1327.05C1316.69 830.99 1305.22 810.434 1293.33 790.195C1273.57 756.534 1250.69 724.987 1225.96 694.655C1203.24 666.807 1178.61 641.389 1148.33 621.837C1132 611.321 1114.83 603.606 1094.8 602.497C1071.71 601.228 1052.37 610.37 1034.03 622.154C1012.42 636.052 994.241 653.913 977.701 673.676C947.422 709.927 924.964 750.299 912.916 795.955C908.054 814.292 904.725 832.998 901.079 852.074H878.145C879.096 839.445 881.58 827.397 883.958 815.348C893.681 766.786 912.757 721.922 939.866 680.916Z" fill="url(#paint25_linear_215_41)"/>
<path opacity="0.45" d="M895.795 666.913C922.639 616.183 950.276 565.877 976.909 515.042C995.563 479.425 1014.06 443.651 1039.48 412.315C1052.69 396.039 1067.17 380.503 1087.72 372.577C1105.74 365.601 1121.65 369.142 1134.59 382.511C1142.2 390.385 1148.7 399.791 1153.93 409.461C1175.02 448.301 1186.91 490.945 1202.92 531.899C1216.02 565.507 1229.02 599.274 1247.94 630.081C1270.24 666.437 1294.13 701.842 1316.64 738.039C1334.39 766.575 1351.41 795.586 1368.16 824.702C1373.23 833.58 1377.83 842.722 1382.43 851.916H1363.35C1359.18 844.096 1354.9 836.328 1350.83 828.401C1327.1 782.375 1298.83 739.043 1269.55 696.505C1237.9 650.478 1207.04 604.082 1179.09 555.731C1167.46 535.598 1153.3 516.574 1138.03 498.977C1114.57 471.974 1088.25 467.271 1056.97 488.884C1037.94 502.042 1022.67 518.899 1009.67 537.658C982.194 577.344 954.979 617.293 928.769 657.876C909.587 687.627 893.84 719.492 882.109 752.994C872.914 779.257 864.776 805.837 861.976 833.791C861.394 839.868 860.496 845.892 859.492 851.969H837.509C839.359 820.845 846.968 790.883 856.057 761.238C866.045 728.475 879.784 697.192 895.795 666.913Z" fill="url(#paint26_linear_215_41)"/>
<path opacity="0.45" d="M508.138 668.127C521.771 650.583 539.949 644.506 558.497 664.798C560.4 666.859 561.773 669.342 563.623 671.456C581.061 691.642 592.158 699.357 616.413 675.155C647.538 644.03 668.305 605.931 682.784 564.66C691.926 538.661 697.316 511.606 698.003 483.863C698.637 457.177 700.487 430.491 699.43 403.859C698.531 381.295 694.727 358.783 691.397 336.378C687.329 309.164 682.203 282.161 677.764 255C673.748 230.269 668.569 205.538 666.561 180.597C664.659 157.293 664.289 133.778 667.988 110.315C671.634 86.9586 678.292 64.7116 689.39 43.9971C709.206 6.95413 736.631 -23.5363 770.768 -48.0555C802.262 -70.7252 836.822 -87.4765 873.125 -100.793C916.086 -116.54 960.263 -127.584 1004.7 -137.836H1140.62C1091.21 -127.214 1041.8 -116.752 992.55 -105.549C950.963 -96.0371 910.591 -82.0865 872.332 -63.2215C831.96 -43.3525 797.454 -15.9269 770.239 20.5348C740.594 60.22 725.745 105.084 722.839 153.752C720.355 195.076 723.526 236.452 726.802 277.669C727.489 286.388 728.229 295.055 729.022 303.721C731.083 326.602 734.57 349.483 734.94 372.364C735.627 418.919 736.79 465.579 729.18 511.923C724.266 541.62 718.03 570.948 706.088 598.48C684.581 647.994 661.013 696.556 639.294 745.965C626.506 775.028 615.462 804.832 604.154 834.53C601.987 840.184 600.349 846.05 598.816 851.862H478.704C477.383 842.034 476.115 832.575 475.903 823.063C475.375 796.113 474.582 769.163 479.708 742.371C484.728 715.844 491.281 689.845 508.138 668.127Z" fill="url(#paint27_linear_215_41)"/>
<path opacity="0.45" d="M770.98 633.302C793.333 577.394 807.97 519.637 816.002 460.241C820.653 426.052 823.4 391.598 826.73 357.25C829.108 332.942 830.481 308.529 833.282 284.274C836.136 259.015 839.148 233.756 843.904 208.814C855.212 148.942 879.097 95.3596 923.01 51.4469C958.362 16.0949 999.421 -10.0096 1045.39 -28.5575C1085.92 -44.9389 1128.78 -52.7596 1171.64 -60.5804C1203.4 -66.3403 1235.05 -72.8929 1266.7 -79.234C1305.44 -87.002 1343.48 -98.6803 1384.01 -94.6642C1411.44 -91.9692 1432.47 -79.7096 1448.06 -57.9911C1469.09 -28.716 1475.22 5.52629 1477.6 40.4556C1479.55 69.2022 1476.17 97.8432 1471.05 125.956C1462.59 171.982 1444.89 214.891 1423.38 256.32C1405.63 290.562 1386.87 324.434 1371.12 359.628C1350.88 404.862 1339.47 452.526 1340.05 502.674C1340.31 525.132 1340.58 547.485 1344.7 569.521C1351.83 607.779 1366.79 643.237 1386.76 676.369C1417.57 727.469 1449.17 778.039 1480.19 828.98C1484.73 836.431 1488.96 844.041 1493.24 851.861H1471.1C1469.14 848.215 1467.08 844.622 1464.97 841.081C1444.25 806.68 1423.28 772.385 1402.83 737.826C1384.12 706.226 1364.99 674.784 1347.82 642.338C1328.26 605.401 1319.02 564.976 1316 523.6C1314.21 499.239 1316.53 474.509 1317.69 449.937C1318.96 422.67 1325.94 396.407 1333.81 370.408C1345.44 332.149 1362.4 296.163 1380.31 260.6C1398.86 223.768 1417.67 187.095 1428.61 147.04C1439.6 106.827 1445.47 66.243 1435.85 25.0254C1424.65 -23.0618 1395.06 -47.4753 1347.39 -50.3289C1326.63 -51.5971 1305.33 -49.3248 1284.72 -46.0486C1247.94 -40.183 1211.48 -32.6264 1174.97 -25.1756C1122.81 -14.5012 1072.61 1.51022 1026.21 28.513C995.246 46.5854 967.926 68.9908 944.887 95.9937C912.758 133.618 892.784 177.953 881.264 225.829C874.553 253.836 869.585 282.266 864.46 310.589C861.553 326.654 859.862 342.982 857.801 359.205C855.423 378.229 853.944 397.305 850.985 416.223C846.651 444.018 842.424 471.867 836.347 499.292C829.477 530.153 822.502 561.224 812.092 591.028C791.378 650.582 765.062 708.234 749.737 769.69C743.026 796.587 737.583 823.907 733.25 851.333C733.197 851.544 733.197 851.703 733.145 851.861H707.146C709.524 836.484 711.69 821.107 715.019 805.941C728.23 746.704 748.469 689.58 770.98 633.302Z" fill="url(#paint28_linear_215_41)"/>
<path opacity="0.45" d="M799.991 678.378C817.113 634.307 836.77 591.081 848.554 545.108C857.432 510.496 865.94 475.725 873.126 440.743C881.845 398.204 888.081 355.137 896.958 312.651C907.421 262.82 920.949 213.94 946.789 169.288C965.443 137.001 989.011 109.047 1018.29 86.2712C1058.24 55.1466 1103.36 33.8509 1152.61 22.014C1185.69 14.0875 1219.2 8.06343 1252.43 0.6654C1279.97 -5.4644 1307.6 -8.42361 1335.5 -3.29783C1357.43 0.771086 1374.71 12.1324 1385.55 32.3184C1400.82 60.748 1399.5 91.0271 1394.42 121.2C1388.61 155.76 1375.35 188.153 1361.08 220.017C1341.63 263.348 1322.08 306.68 1309.77 352.759C1300.52 387.16 1294.6 422.089 1293.76 457.705C1293.02 487.403 1294.23 516.89 1299.68 546.376C1305.12 575.862 1312.73 604.451 1325.52 631.506C1345.75 674.309 1371.44 713.994 1396.33 754.155C1415.19 784.54 1432.95 815.559 1450.97 846.419C1452.02 848.269 1453.08 850.118 1454.08 852.02H1433.53C1432.31 849.695 1431.04 847.37 1429.72 845.098C1415.82 820.79 1402.14 796.377 1387.77 772.386C1364.46 733.388 1339.99 695.129 1317.33 655.814C1283.72 597.528 1270.45 533.377 1267.02 467.059C1265.33 434.507 1268.34 402.114 1272.83 369.722C1277.27 337.91 1284.25 306.733 1293.33 276.031C1302.95 243.321 1313.94 211.034 1322.87 178.165C1328.85 156.13 1334.18 133.883 1330.59 110.262C1326.1 80.2471 1307.6 61.9105 1277.16 61.6463C1261.1 61.4878 1244.88 61.6463 1229.08 63.9186C1201.55 67.829 1173.59 71.2638 1146.96 78.8203C1080.38 97.791 1026.79 135.838 988.166 193.913C964.069 230.163 947.741 270.06 936.485 311.7C918.413 378.758 903.194 446.661 885.016 513.666C875.927 547.221 863.614 579.984 851.408 612.589C836.982 651.164 820.389 688.894 806.015 727.522C794.443 758.488 786.146 790.511 781.549 823.38C780.228 832.944 778.643 842.509 777.11 852.02H753.648C756.026 838.017 758.668 824.066 761.099 810.116C769.025 764.671 783.346 721.181 799.991 678.378Z" fill="url(#paint29_linear_215_41)"/>
</g>
<g opacity="0.59">
<path opacity="0.59" d="M1713.07 712.301C1689.61 680.807 1673.12 645.455 1657.58 609.785C1640.51 570.523 1632.69 529.094 1633.33 486.291C1633.49 476.198 1633.96 465.947 1635.55 456.012C1637.93 441.216 1641.94 426.79 1650.5 414.002C1665.51 391.702 1687.6 378.755 1711.54 369.138C1756.77 351.013 1804.96 345.147 1852.52 337.009C1873.39 333.469 1894.37 330.351 1915.3 327.233C1921.11 326.388 1926.98 325.701 1932.84 325.067V344.777C1901.88 350.379 1871.54 355.716 1841.48 361.634C1808.24 368.187 1775.63 376.959 1745.67 393.446C1721.1 406.974 1701.44 425.363 1689.39 450.886C1672.64 486.344 1671.37 523.968 1677.61 561.698C1683.9 599.851 1701.65 633.935 1720.84 666.962C1740.55 700.94 1765.7 730.796 1794.39 757.693C1814.05 776.135 1835.24 792.358 1859.5 804.354C1882.8 815.874 1907.37 823.06 1932.95 827.129V856.14H1896.12C1870.06 847.579 1845.55 835.478 1823.03 819.203C1804.43 805.78 1787.84 789.558 1769.87 775.184C1747.52 757.323 1730.03 735.076 1713.07 712.301Z" fill="url(#paint30_linear_215_41)"/>
<path opacity="0.59" d="M1932.95 153.169C1910.91 157.291 1889.14 159.88 1866.36 156.974C1821.98 151.267 1792.44 126.536 1774.26 87.7495C1761.74 60.9581 1758.62 31.9472 1764.54 2.61929C1771.46 -31.7287 1789.48 -59.8941 1816.9 -80.9256C1851.73 -107.664 1891.62 -111.892 1932.95 -106.343V-82.7223C1920.21 -83.4621 1908.22 -84.1491 1896.27 -84.2547C1875.08 -84.4661 1855.16 -77.755 1837.99 -66.2353C1800.05 -40.8177 1778.59 4.73301 1791.38 54.2998C1804.12 103.761 1838.99 130.447 1888.61 131.556C1903.09 131.873 1917.62 129.39 1933 127.118V153.169H1932.95Z" fill="url(#paint31_linear_215_41)"/>
<path opacity="0.59" d="M1384.86 640.117C1371.07 609.838 1363.51 578.08 1362.56 544.841C1362.14 530.944 1362.19 517.046 1362.61 503.148C1362.88 493.742 1363.35 484.23 1364.99 474.983C1371.91 434.875 1385.18 396.775 1403.88 360.736C1416.41 336.534 1430.62 313.23 1443.57 289.292C1466.18 247.44 1485.42 204.268 1495.04 157.237C1501.43 126.06 1505.24 94.5124 1505.98 62.8594C1506.5 39.5028 1504.02 16.0405 1502.06 -7.31618C1499.48 -37.8066 1491.92 -67.2402 1479.87 -95.2999C1474.69 -107.401 1467.45 -118.551 1456.36 -127.006C1452.92 -129.595 1449.43 -131.709 1445.84 -133.453H1528.91C1528.49 -96.7795 1530.02 -60.1064 1532.77 -23.4862C1534.62 0.927353 1533.4 25.5522 1533.03 50.0714C1532.77 67.9324 1532.4 85.8462 1530.81 103.654C1528.7 127.592 1526.11 151.477 1522.36 175.204C1514.48 225.141 1496.09 271.325 1470.57 314.868C1450.01 349.903 1427.56 383.828 1411.86 421.558C1397.44 456.329 1388.66 492.421 1387.4 529.94C1386.81 546.532 1389.77 563.231 1391.31 579.876C1393.84 607.249 1403.57 632.561 1416.14 656.446C1429.19 681.282 1444.25 705.114 1458.94 729.052C1485.05 771.538 1511.47 813.813 1537.73 856.193H1512.21C1488.7 816.825 1465.29 777.404 1440.93 738.511C1420.95 706.488 1400.55 674.624 1384.86 640.117Z" fill="url(#paint32_linear_215_41)"/>
<path opacity="0.59" d="M1514.54 665.591C1491.87 631.93 1482.94 594.676 1493.87 554.568C1499.79 532.955 1509.2 512.98 1531.02 502.253C1543.12 496.335 1558.98 499.558 1567.22 510.127C1571.92 516.151 1576.31 522.651 1579.53 529.52C1591.69 555.678 1603.21 582.099 1615.1 608.362C1623.97 627.967 1633.96 647.096 1641.94 667.071C1663.29 720.389 1697.9 763.668 1742.71 798.544C1767.92 818.149 1793.02 838.124 1819.81 856.143H1633.12C1619.48 820.738 1602.15 787.236 1579.74 756.323C1557.87 726.202 1535.36 696.452 1514.54 665.591Z" fill="url(#paint33_linear_215_41)"/>
<path opacity="0.59" d="M1148.39 793.842C1178.93 806.049 1200.22 828.402 1216.18 856.25H1155.15C1141.04 847.055 1121.28 845.417 1107.64 856.25H1039.85C1043.81 841.084 1049.99 826.975 1061.14 814.557C1083.86 789.192 1116.31 781.001 1148.39 793.842Z" fill="url(#paint34_linear_215_41)"/>
<path opacity="0.59" d="M1428.61 632.72C1413.34 596.681 1410.28 558.476 1415.14 519.425C1418.73 490.678 1425.86 462.988 1439.5 437.782C1456.25 406.816 1474.8 376.749 1493.77 346.998C1517.71 309.426 1535.46 269.477 1542.07 225.459C1547.62 188.627 1551.58 151.478 1554.7 114.383C1556.86 88.5423 1556.44 62.4378 1557.13 36.4918C1557.87 7.69234 1557.92 -21.1071 1559.45 -49.8538C1560.46 -69.3 1562.36 -88.9048 1565.85 -108.034C1567.43 -116.806 1569.54 -125.314 1572.08 -133.504H1611.4C1608.33 -127.375 1605.53 -121.086 1602.94 -114.639C1589.31 -80.6085 1584.98 -44.6751 1582.02 -8.58331C1580.38 11.3385 1580.17 31.3661 1579.8 51.3407C1578.9 103.021 1577.95 154.702 1577.74 206.435C1577.63 237.296 1576.36 267.945 1571.29 298.435C1567.27 322.796 1560.72 346.311 1545.82 366.497C1533.77 382.825 1521.35 398.89 1508.35 414.478C1476.38 452.79 1452.87 494.43 1448.01 545.582C1445.68 570.101 1448.06 593.458 1454.29 616.656C1464.12 653.171 1485.15 684.084 1506.19 714.733C1535.3 757.113 1564.74 799.282 1589.26 844.621C1591.32 848.426 1593.27 852.284 1595.23 856.247H1562.36C1557.02 845.995 1551.58 835.796 1545.4 826.073C1519.19 784.539 1491.76 743.744 1465.92 701.945C1452.13 679.645 1438.76 656.764 1428.61 632.72Z" fill="url(#paint35_linear_215_41)"/>
<path opacity="0.59" d="M1027.96 744.748C1061.67 713.412 1101.09 704.376 1144.32 720.281C1178.19 732.752 1204.93 756.003 1226.12 785.014C1238.75 802.347 1250.43 820.472 1261.47 838.914C1264.75 844.41 1267.55 850.17 1270.24 856.247H1243.72C1227.86 823.537 1207.41 794.209 1177.03 772.543C1157.11 758.328 1134.86 749.556 1110.66 749.398C1085.5 749.239 1062.78 758.751 1044.71 776.771C1024.68 796.745 1011.42 820.683 1006.29 848.796C1005.82 851.332 1005.34 853.816 1004.86 856.299H973.37C978.496 812.704 995.564 774.868 1027.96 744.748Z" fill="url(#paint36_linear_215_41)"/>
<path opacity="0.59" d="M1932.95 795.161C1930.99 795.214 1929.2 795.214 1927.4 794.95C1921.22 794.157 1914.98 793.048 1908.9 791.674C1850.25 778.939 1807.71 742.477 1771.25 697.455C1750.69 672.09 1734.79 643.819 1720.84 614.28C1709.58 590.447 1704.24 565.241 1703.4 539.295C1702.97 526.19 1705.14 512.874 1707.47 499.927C1712.38 472.713 1725.43 449.092 1744.98 430.121C1763.16 412.472 1785.25 400.159 1809.35 391.546C1845.54 378.599 1883.12 371.73 1920.69 364.543C1924.65 363.803 1928.77 363.381 1932.95 363.063V384.782C1932.05 384.888 1931.15 384.993 1930.25 385.205C1905.47 390.595 1880.53 395.403 1856.11 402.009C1827 409.882 1799.47 422.036 1776.74 442.539C1751.75 465.051 1738.22 494.114 1734.42 526.983C1730.56 560.591 1737.16 592.984 1753.39 622.893C1771.41 656.184 1793.02 686.886 1821.13 712.673C1839.52 729.53 1859.92 742.847 1883.43 751.407C1899.55 757.273 1915.93 761.765 1932.95 762.187V795.161Z" fill="url(#paint37_linear_215_41)"/>
<path opacity="0.59" d="M1932.95 733.543C1913.08 732.751 1895.16 727.783 1877.89 720.174C1840.68 703.898 1813.47 676.525 1791.54 643.076C1769.87 609.943 1754.23 575.542 1759.89 534.113C1764.75 498.286 1781.34 469.909 1809.93 448.983C1844.28 423.777 1884.38 412.997 1925.87 406.709C1928.19 406.339 1930.57 406.022 1932.95 405.705V431.069C1931.42 431.175 1929.94 431.281 1928.56 431.545C1926.5 431.968 1924.6 433.024 1922.59 433.342C1887.77 438.362 1855.48 449.987 1827.84 472.128C1806.18 489.408 1792.65 512.448 1789.43 539.926C1786.2 567.88 1791.59 594.302 1807.18 618.874C1830.8 656.075 1860.87 684.505 1904.36 696.183C1913.61 698.667 1923.22 699.776 1932.95 701.15V733.543Z" fill="url(#paint38_linear_215_41)"/>
<path opacity="0.59" d="M1897.33 619.511C1908.53 625.587 1920.48 628.335 1932.95 628.917V670.187C1920.74 667.809 1909.06 665.96 1898.02 662.261C1872.02 653.541 1851.83 636.209 1835.72 614.49C1812.52 583.154 1810.04 543.416 1832.86 510.865C1847.24 490.362 1866.68 476.623 1889.93 468.168C1903.62 463.148 1917.52 458.762 1932.95 457.758V495.171C1907.58 497.919 1886.08 508.804 1870.22 529.149C1858.02 544.79 1855.43 562.81 1861.82 581.675C1867.9 599.483 1881.27 610.791 1897.33 619.511Z" fill="url(#paint39_linear_215_41)"/>
<path opacity="0.59" d="M1637.4 -64.2275C1626.09 -30.9363 1623.45 3.94011 1622.23 38.7637C1621.6 56.5718 1623.13 74.4856 1624.19 92.2938C1625.19 109.309 1626.93 126.325 1628.31 143.34C1630.63 172.193 1636.97 200.252 1647.7 227.044C1660.33 258.644 1682.05 280.732 1715.82 290.931C1741.6 298.699 1768.08 298.91 1794.34 300.654C1813.47 301.922 1832.86 300.02 1852.1 298.752C1866.37 297.853 1880.53 296.004 1894.69 294.102C1907.32 292.358 1919.95 290.297 1932.89 288.183V308.105C1906.74 311.963 1880.79 316.031 1854.79 319.202C1825.73 322.742 1796.56 325.649 1767.34 327.551C1742.13 329.242 1716.82 330.088 1691.56 329.559C1676.98 329.242 1662.55 325.807 1649.87 317.141C1631.79 304.776 1624.29 286.069 1618.53 266.412C1609.71 236.133 1606.8 204.797 1603.84 173.619C1601.25 146.088 1599.56 118.398 1599.61 90.7613C1599.72 57.4702 1602.2 24.2319 1603.47 -9.05928C1604.53 -37.1718 1610.82 -64.1218 1620.38 -90.4905C1625.98 -105.974 1632.96 -120.294 1641.1 -133.558H1673.38C1657.48 -112.473 1645.85 -89.2223 1637.4 -64.2275Z" fill="url(#paint40_linear_215_41)"/>
<path opacity="0.59" d="M1883.06 -125.103C1855.32 -121.774 1830.17 -113.636 1807.55 -97.1487C1780.65 -77.5439 1762.26 -51.7037 1750.69 -20.8433C1740.76 5.73677 1740.39 33.1095 1744.61 60.7464C1750.16 97.0496 1765.65 127.593 1794.55 151.372C1829.74 180.33 1870.75 180.647 1912.65 177.16C1919.37 176.578 1926.02 175.363 1932.89 174.042V196.606C1913.76 198.984 1895.22 201.52 1876.51 202.63C1864.51 203.317 1852.2 200.622 1840.15 198.72C1806.86 193.488 1778.8 177.477 1758.04 151.689C1721.2 105.874 1713.23 51.9745 1723.16 -4.19774C1730.93 -48.1632 1755.18 -83.4095 1790.59 -110.677C1802.9 -120.135 1815.95 -127.851 1830.06 -133.558H1932.89V-123.57C1916.46 -125.631 1900.13 -127.164 1883.06 -125.103Z" fill="url(#paint41_linear_215_41)"/>
<path opacity="0.59" d="M1876.04 51.658C1891.04 60.6413 1915.14 60.6413 1932.95 50.0727V98.2128C1912.92 104.078 1892.47 106.403 1871.86 100.644C1840.63 91.8716 1816.9 66.137 1814.74 28.6712C1812.41 -11.5952 1837.51 -42.6141 1870.49 -54.3981C1891.41 -61.9018 1912.13 -62.1132 1932.95 -58.7312V-17.3022C1913.71 -25.0702 1883.12 -22.9565 1867.58 -4.19715C1852.47 13.9809 1859.97 42.0406 1876.04 51.658Z" fill="url(#paint42_linear_215_41)"/>
<path opacity="0.59" d="M1717.4 125.48C1733.2 164.319 1759.3 193.066 1799.41 208.443C1814.53 214.203 1829.8 218.219 1845.7 219.276C1861.4 220.28 1877.3 220.861 1892.94 219.752C1906.21 218.801 1919.42 216.581 1932.95 214.467V235.023C1918.89 237.507 1904.78 240.255 1890.67 240.73C1864.15 241.523 1837.46 242.95 1810.93 237.084C1771.3 228.365 1738.54 209.659 1715.55 175.733C1690.71 139.166 1682.89 97.3142 1680.09 54.3528C1679.14 39.451 1681.1 24.2851 1681.99 9.27765C1683.32 -13.2335 1689.39 -34.5293 1698.64 -55.0324C1712.49 -85.7342 1731.83 -112.103 1758.14 -133.504H1793.02C1757.88 -112.156 1731.88 -80.2386 1714.92 -38.334C1703.13 -9.21744 1699.59 21.0617 1702.08 52.609C1703.98 77.7623 1707.99 102.176 1717.4 125.48Z" fill="url(#paint43_linear_215_41)"/>
<path opacity="0.59" d="M1932.95 272.171C1906.63 275.5 1880.79 279.358 1854.9 280.943C1820.6 283.057 1786.47 280.045 1752.91 271.273C1715.34 261.444 1688.23 239.672 1670.69 205.166C1651.98 168.229 1644.53 128.279 1642.36 87.8542C1640.25 48.856 1639.19 9.38223 1648.02 -29.3517C1656.9 -68.4028 1673.75 -103.385 1699.86 -133.453H1731.14C1724.69 -127.217 1718.56 -120.506 1712.7 -113.319C1680.57 -73.7928 1665.51 -28.0835 1662.39 21.6947C1659.91 61.8554 1663.34 101.805 1674.86 140.697C1684.27 172.456 1697.95 201.52 1724.53 223.133C1753.28 246.542 1787.21 256.054 1822.93 258.379C1857.86 260.704 1892.89 259.7 1927.5 252.513C1929.3 252.143 1931.1 251.879 1932.89 251.668V272.171H1932.95Z" fill="url(#paint44_linear_215_41)"/>
<path opacity="0.59" d="M714.914 650.898C723.791 628.916 733.197 607.039 740.067 584.369C749.949 551.765 757.4 518.526 759.777 484.337C761.627 457.493 765.009 430.754 765.696 403.91C766.383 377.277 763.741 350.538 764.058 323.853C764.745 272.278 760.94 220.597 767.862 169.128C771.667 140.646 777.903 112.903 789.845 86.8513C806.227 51.0765 829.689 20.7446 859.651 -5.25421C887.975 -29.8262 919.998 -47.0003 954.451 -60.5809C1012.42 -83.4091 1073.19 -95.3517 1134.07 -106.977C1155.52 -111.099 1177.13 -114.587 1198.53 -119.131C1215.76 -122.777 1232.62 -127.692 1249.16 -133.504H1365.78C1347.71 -129.224 1329.85 -123.728 1311.93 -118.761C1269.77 -107.083 1228.5 -92.3396 1184.79 -86.0513C1148.39 -80.8727 1112.29 -73.1576 1076.36 -65.0726C1041.7 -57.3047 1007.72 -46.8946 975.589 -31.253C948.691 -18.1479 924.595 -1.07961 901.82 18.3138C876.614 39.821 856.745 65.2385 841.05 94.0379C816.901 138.426 808.552 187.147 803.584 236.609C801.259 259.912 800.361 283.322 799.251 306.731C798.247 328.45 797.825 350.168 797.032 371.887C796.503 386.207 796.134 400.581 794.865 414.901C792.382 443.014 789.634 471.073 786.41 499.08C782.13 536.546 772.83 572.902 759.989 608.307C744.876 649.947 728.811 691.271 713.804 732.964C701.703 766.73 692.403 801.343 686.748 836.853C685.744 843.3 684.529 849.694 683.261 856.141H649.124C651.079 845.52 652.929 835.374 655.148 825.333C668.253 764.934 691.768 707.969 714.914 650.898Z" fill="url(#paint45_linear_215_41)"/>
<path opacity="0.59" d="M152.082 260.389C196.682 273.97 235.627 295.741 264.215 332.679C294.177 371.413 307.811 416.752 310.189 465.315C310.876 478.843 309.026 492.529 308.286 506.162C306.543 537.234 297.242 566.245 284.824 594.516C273.146 621.043 261.045 647.518 251.11 674.732C230.29 731.591 221.729 790.775 221.571 851.228C221.571 852.919 221.571 854.557 221.571 856.248H11.361C16.5396 840.606 21.7711 825.493 25.5758 810.063C30.8601 788.556 35.7745 766.626 37.6769 744.643C39.3679 724.88 38.3638 704.535 35.616 684.825C32.8682 664.956 28.4293 644.77 21.1898 626.116C11.361 600.752 -1.10995 576.444 -12.5769 551.66V482.647C-0.581523 512.979 13.3691 542.307 30.3317 570.261C44.9164 594.305 59.6596 618.348 73.0289 643.079C85.9755 666.964 97.1254 691.853 109.385 716.161C113.295 723.929 117.47 731.802 122.754 738.672C129.677 747.708 135.965 748.078 143.944 739.729C152.346 730.904 160.379 721.392 167.142 711.246C192.19 673.411 216.709 635.258 241.387 597.158C262.366 564.765 272.195 528.674 274.995 490.627C276.528 469.595 273.674 448.722 268.76 428.219C255.443 372.522 223.632 330.988 172.163 305.781C130.575 285.437 86.2397 278.092 40.319 285.912C20.3443 289.294 1.74357 295.953 -12.5769 309.428V257.483C1.74357 252.304 16.5925 249.081 31.7584 248.5C72.3419 246.914 112.503 248.341 152.082 260.389Z" fill="url(#paint46_linear_215_41)"/>
<path opacity="0.59" d="M957.675 746.915C977.016 712.62 1001.75 683.133 1035.78 662.471C1073.72 639.432 1112.45 639.643 1151.24 660.358C1188.18 680.068 1216.18 709.819 1240.76 742.687C1258.56 766.52 1274.95 791.62 1290.43 817.09C1297.98 829.508 1304.33 842.614 1310.93 856.247H1289.48C1277.06 828.399 1260.89 802.611 1243.19 777.828C1222.79 749.24 1199.96 722.66 1169.58 704.059C1149.13 691.535 1127.3 681.654 1102.78 681.019C1066.48 680.068 1037.1 696.555 1012.1 720.705C988.906 743.11 972.789 770.43 961.692 800.92C955.139 818.94 951.176 837.435 948.481 856.247H922.958C923.433 850.012 923.962 843.935 925.018 837.911C930.673 805.729 941.664 775.344 957.675 746.915Z" fill="url(#paint47_linear_215_41)"/>
<path opacity="0.59" d="M2.27226 391.811C-0.10568 439.475 16.9098 481.433 39.5266 522.122C52.7903 545.954 68.9602 567.144 88.9349 585.586C104.841 600.224 122.596 610.317 145.318 609.101C164.183 608.097 179.561 599.695 192.93 587.436C216.181 566.087 229.603 539.243 234.253 508.118C235.733 498.131 236.314 487.985 237.318 477.945C237.9 444.707 228.441 414.797 209.84 387.583C187.329 354.662 155.94 335.11 117.417 326.497C89.4634 320.208 61.8793 320.525 36.2504 335.163C14.5847 347.475 3.48765 366.869 2.27226 391.811ZM62.302 437.837C62.8833 430.069 62.4605 424.256 63.8873 418.972C71.1268 391.969 92.4754 384.677 117.576 390.278C164.289 400.688 191.662 457.072 171.687 500.826C158.952 528.674 134.591 535.65 112.133 521.752C81.0085 502.464 65.1027 472.449 62.302 437.837Z" fill="url(#paint48_linear_215_41)"/>
<path opacity="0.59" d="M10.093 189.102C29.6978 189.366 49.3555 190.106 68.9074 191.216C86.9797 192.22 105.263 192.801 123.072 195.654C156.838 201.15 190.341 207.967 222.522 220.543C264.215 236.819 299.462 261.444 324.826 298.487C355.74 343.615 368.264 394.978 371.434 448.72C372.544 467.162 370.377 485.816 369.637 504.417C368.686 528.249 363.772 551.5 356.162 573.905C339.517 623.049 320.705 671.506 313.465 723.24C310.453 744.641 307.494 766.096 306.437 787.603C305.327 810.431 306.014 833.312 306.12 856.193H265.431C266.012 848.425 266.593 841.027 266.541 833.629C266.329 800.655 269.711 768.104 274.837 735.552C281.865 690.953 294.177 647.938 311.827 606.562C335.606 550.813 344.484 493.161 336.663 432.92C332.172 398.149 322.184 365.545 304.693 335.002C284.56 299.861 256.025 273.968 220.303 255.737C165.769 227.889 106.532 220.068 46.4491 218.377C26.8443 217.796 7.18667 220.332 -12.5238 222.446V189.577C-4.9144 189.26 2.58932 188.996 10.093 189.102Z" fill="url(#paint49_linear_215_41)"/>
<path opacity="0.59" d="M45.9208 -52.2841C68.3262 -54.5035 88.4066 -62.06 99.0281 -84.4127C106.69 -100.477 104.207 -116.594 98.1826 -132.289C98.0241 -132.711 97.8655 -133.081 97.6542 -133.504H163.602C170.049 -119.976 174.964 -105.603 177.764 -89.9612C183.049 -60.5276 166.509 -29.2445 141.831 -16.1394C117.312 -3.13998 90.9431 0.664719 63.9931 1.98579C50.7823 2.6199 37.2545 1.82727 24.1494 -0.12793C11.837 -1.97743 -0.36977 -4.72528 -12.5237 -7.63165V-58.9951C6.55268 -52.1255 25.9989 -50.276 45.9208 -52.2841Z" fill="url(#paint50_linear_215_41)"/>
<path opacity="0.59" d="M89.4106 91.4491C128.409 91.5548 167.46 90.9207 206.458 89.3882C231.559 88.4371 256.606 86.0063 281.548 83.0471C302.738 80.5634 323.4 75.1735 342.635 65.556C365.304 54.1948 379.466 30.6796 376.507 9.59518C373.865 -9.58686 368.316 -27.8706 359.756 -45.4145C344.537 -76.4862 326.095 -105.603 305.856 -133.504H355.687C361.817 -126.317 367.999 -119.131 374.235 -111.997C390.194 -93.7659 406.469 -75.9049 423.115 -58.3082C439.496 -40.9757 456.776 -24.4886 477.86 -12.8103C491.177 -5.4651 506.026 -1.23766 520.874 -1.87177C539.951 -2.66441 557.336 -10.4852 573.665 -20.7368C609.809 -43.5121 645.954 -66.2875 682.627 -88.2702C713.805 -106.977 746.726 -121.667 780.704 -133.504H898.703C869.269 -125.63 840.1 -116.647 811.564 -105.497C760.888 -85.7338 714.703 -58.361 674.278 -22.1107C635.914 12.343 605.423 53.0322 586.77 101.384C579.9 119.192 574.669 137.845 571.128 156.605C567.641 175.153 575.303 192.274 583.388 208.866C599.135 241.206 616.362 272.912 629.573 306.256C652.295 363.591 665.189 423.039 659.799 485.606C657.897 507.694 654.568 529.148 646.8 549.81C640.987 565.346 633.642 580.142 620.695 591.239C604.525 605.137 587.404 606.881 571.604 590.076C566.584 584.739 561.722 579.191 557.442 573.22C544.918 555.834 527.427 557.525 515.326 569.521C488.799 595.678 470.356 626.644 458.361 661.679C448.268 691.112 440.5 721.127 439.655 752.305C438.809 783.746 439.39 815.241 439.496 846.682C439.496 849.853 439.655 852.971 439.866 856.141H403.034C401.713 839.39 400.234 823.062 400.234 806.733C400.287 785.437 401.978 764.036 404.355 742.846C406.681 722.131 410.168 701.523 414.184 681.072C421.001 646.354 435.057 614.067 448.849 581.674C466.446 540.298 477.12 497.02 480.027 452.315C482.14 419.446 479.71 386.578 474.373 353.815C467.503 311.541 457.41 270.323 440.447 230.902C432.309 211.984 421.688 194.599 408.002 179.433C394.632 164.637 377.511 154.808 358.858 147.833C333.123 138.215 306.437 133.248 279.17 130.923C258.667 129.126 238.217 126.484 217.714 124.793C196.101 122.996 174.435 121.781 152.717 120.566C124.71 118.98 96.703 117.659 68.6961 116.233C54.0058 115.493 39.2625 114.911 24.5722 114.013C17.2798 113.59 9.93463 112.851 2.69513 111.899C-2.37781 111.265 -7.45075 110.525 -12.5237 109.786V82.0431C1.32121 83.9454 15.0076 85.7949 28.7468 87.1688C48.9328 89.3354 69.1717 91.3963 89.4106 91.4491Z" fill="url(#paint51_linear_215_41)"/>
<path opacity="0.59" d="M130.1 30.6263C154.038 26.9801 177.394 21.8015 198.954 10.4402C219.404 -0.339783 233.778 -15.3472 237.688 -39.7607C240.33 -56.4063 237.688 -71.7837 233.038 -87.1082C228.018 -103.542 221.307 -118.867 213.327 -133.504H261.626C281.812 -102.168 299.092 -69.6171 302.421 -30.8303C303.636 -16.4569 301.575 -3.24615 293.807 9.06628C281.918 27.9313 263.423 37.8129 243.607 45.4223C206.035 59.9542 166.35 63.4947 126.665 65.2913C100.402 66.5067 73.9802 65.08 47.7172 63.2833C27.584 61.9094 7.55646 58.8445 -12.4711 56.4137V26.0818C11.5725 30.9962 35.1406 33.9025 58.9199 34.5367C82.6993 35.2236 106.426 34.2724 130.1 30.6263Z" fill="url(#paint52_linear_215_41)"/>
<path opacity="0.59" d="M123.283 144.662C148.912 147.093 174.435 150.105 200.011 153.012C234.888 157.028 268.76 164.954 301.523 178.059C341.631 194.071 372.015 220.598 393.364 257.905C421.265 306.679 432.943 360.209 436.854 415.272C439.02 445.551 438.175 476.094 433.578 506.532C428.346 541.25 418.834 574.488 406.363 607.039C385.279 662.155 373.284 719.172 371.751 778.251C371.646 782.109 371.223 785.966 371.117 789.824C370.694 802.083 369.849 814.29 370.113 826.55C370.324 836.378 370.959 846.154 371.646 856.195H337.667C337.086 848.268 336.611 840.764 336.663 833.208C336.822 815.347 337.615 797.433 338.724 779.625C339.834 761.183 340.468 742.582 343.216 724.351C348.606 688.259 356.268 652.485 369.532 618.348C387.551 571.899 399.811 524.129 401.66 474.35C402.559 449.62 400.498 424.572 397.222 400C393.47 371.624 385.86 343.934 374.605 317.407C358.752 280.205 335.818 248.605 302.104 225.512C271.244 204.375 236.737 191.799 200.54 184.348C173.273 178.746 145.583 174.942 117.946 171.507C94.0607 168.495 69.9643 166.592 45.9207 165.166C26.4216 164.003 6.92245 163.686 -12.5238 163.158V134.517C13.2636 136.419 39.0511 138.427 64.8385 140.329C84.2847 141.756 103.837 142.813 123.283 144.662Z" fill="url(#paint53_linear_215_41)"/>
<path opacity="0.59" d="M-12.5238 801.553V607.566C10.4629 672.352 7.45089 736.979 -12.5238 801.553Z" fill="url(#paint54_linear_215_41)"/>
<path opacity="0.59" d="M838.144 698.617C850.932 667.281 865.728 636.737 879.045 605.613C907.157 539.823 926.339 471.021 947.424 402.907C962.167 355.242 977.861 308.106 1003.12 264.669C1023.89 229 1050.26 198.457 1085.13 176.051C1119.22 154.068 1155.84 141.016 1197.37 148.784C1230.77 155.02 1247.52 174.307 1249.53 210.399C1250.37 225.671 1249.95 241.101 1249.58 256.425C1249.26 269.372 1248.31 282.266 1247.47 295.212C1245.46 325.544 1242.45 355.823 1241.5 386.208C1240.76 408.931 1242.24 431.812 1243.45 454.534C1244.3 471.18 1245.19 488.037 1248.05 504.418C1251.8 525.82 1256.29 547.274 1262.74 567.988C1270.03 591.398 1278.01 614.913 1289 636.737C1303.06 664.533 1320.28 690.743 1336.35 717.534C1358.28 754.155 1380.58 790.511 1402.3 827.237C1407.9 836.748 1413.08 846.471 1418.2 856.353H1398.55C1391.68 843.248 1384.75 830.09 1377.14 817.408C1347.29 767.735 1317.59 718.01 1286.73 668.972C1259.41 625.535 1239.43 579.085 1227.39 529.466C1219.51 497.02 1213.7 464.046 1207.99 431.125C1203.03 402.642 1199.86 373.896 1195.26 345.36C1191.45 321.845 1186.7 298.594 1174.86 277.404C1166.51 262.45 1145.96 249.926 1130.53 251.987C1115.89 253.942 1102.15 258.751 1089.36 266.677C1062.41 283.428 1043.44 307.525 1026.85 333.735C1001.17 374.213 983.938 418.654 966.077 462.831C948.005 507.536 930.144 552.347 910.803 596.524C894.211 634.412 874.87 671.138 858.225 709.027C838.831 753.203 825.409 799.23 820.178 847.423C819.861 850.435 819.491 853.394 819.068 856.406H796.292C797.983 844.781 799.886 833.155 801.788 821.53C808.816 778.938 821.974 738.249 838.144 698.617Z" fill="url(#paint55_linear_215_41)"/>
<path opacity="0.59" d="M940.289 685.193C956.036 661.361 974.849 639.537 992.657 617.131C1009.3 596.152 1028.17 577.393 1051 563.02C1070.65 550.655 1091.84 545.529 1113.77 555.199C1125.66 560.431 1137.76 567.406 1146.85 576.495C1166.67 596.205 1185.59 616.973 1203.08 638.797C1227.44 669.129 1251.22 700.095 1273.31 732.118C1294.18 762.344 1313.04 793.944 1331.86 825.491C1337.72 835.32 1342.74 845.677 1347.76 856.299H1327.47C1317.11 835.267 1305.65 814.711 1293.76 794.473C1273.99 760.811 1251.11 729.264 1226.38 698.932C1203.66 671.084 1179.03 645.666 1148.76 626.114C1132.43 615.599 1115.25 607.884 1095.23 606.774C1072.13 605.506 1052.79 614.647 1034.46 626.431C1012.84 640.329 994.665 658.19 978.125 677.954C947.846 714.204 925.387 754.576 913.339 800.232C908.478 818.569 905.148 837.275 901.502 856.352H878.568C879.52 843.775 882.003 831.674 884.381 819.626C894.104 771.01 913.181 726.199 940.289 685.193Z" fill="url(#paint56_linear_215_41)"/>
<path opacity="0.59" d="M896.218 671.191C923.063 620.462 950.699 570.155 977.332 519.32C995.986 483.704 1014.48 447.929 1039.9 416.593C1053.11 400.317 1067.59 384.781 1088.14 376.855C1106.16 369.88 1122.07 373.42 1135.02 386.789C1142.63 394.663 1149.13 404.069 1154.36 413.739C1175.44 452.579 1187.33 495.223 1203.34 536.177C1216.45 569.785 1229.45 603.552 1248.36 634.359C1270.66 670.715 1294.55 706.12 1317.06 742.318C1334.82 770.853 1351.83 799.864 1368.58 828.981C1373.66 837.858 1378.25 847 1382.85 856.195H1363.77C1359.6 848.374 1355.32 840.606 1351.25 832.68C1327.52 786.653 1299.25 743.322 1269.98 700.783C1238.32 654.757 1207.46 608.361 1179.51 560.009C1167.88 539.876 1153.72 520.852 1138.45 503.256C1114.99 476.253 1088.67 471.55 1057.39 493.163C1038.37 506.321 1023.09 523.178 1010.1 541.937C982.617 581.622 955.403 621.571 929.192 662.155C910.01 691.905 894.263 723.77 882.532 757.272C873.337 783.535 865.199 810.116 862.399 838.07C861.817 844.146 860.919 850.171 859.915 856.248H837.932C839.782 825.123 847.391 795.161 856.48 765.516C866.52 732.753 880.207 701.417 896.218 671.191Z" fill="url(#paint57_linear_215_41)"/>
<path opacity="0.59" d="M508.614 672.353C522.248 654.809 540.426 648.732 558.974 669.024C560.876 671.085 562.25 673.568 564.099 675.682C581.538 695.868 592.635 703.583 616.89 679.381C648.014 648.257 668.782 610.157 683.261 568.886C692.402 542.887 697.792 515.832 698.479 488.089C699.113 461.403 700.963 434.718 699.906 408.085C699.008 385.521 695.203 363.009 691.874 340.604C687.805 313.39 682.679 286.387 678.24 259.226C674.224 234.495 669.046 209.765 667.038 184.823C665.135 161.519 664.765 138.004 668.464 114.541C672.111 91.1846 678.769 68.9377 689.866 48.2232C709.682 11.1802 737.108 -19.3103 771.244 -43.8295C802.739 -66.4991 837.298 -83.2504 873.601 -96.5669C916.563 -112.314 960.74 -123.358 1005.18 -133.61H1141.09C1091.68 -122.988 1042.28 -112.525 993.027 -101.323C951.439 -91.811 911.067 -77.8604 872.809 -58.9954C832.437 -39.1264 797.93 -11.7009 770.716 24.7609C741.071 64.446 726.222 109.31 723.316 157.978C720.885 199.302 724.003 240.678 727.279 281.895C727.966 290.614 728.706 299.281 729.498 307.947C731.559 330.828 735.047 353.709 735.417 376.59C736.104 423.145 737.266 469.805 729.657 516.149C724.742 545.847 718.507 575.174 706.564 602.706C685.057 652.22 661.489 700.783 639.771 750.191C626.983 779.255 615.938 809.058 604.63 838.756C602.463 844.41 600.825 850.276 599.293 856.088H479.128C477.807 846.26 476.538 836.801 476.327 827.289C475.799 800.339 475.006 773.389 480.132 746.598C485.205 720.07 491.704 694.071 508.614 672.353Z" fill="url(#paint58_linear_215_41)"/>
<path opacity="0.59" d="M771.403 637.583C793.756 581.675 808.393 523.917 816.426 464.521C821.076 430.332 823.824 395.878 827.153 361.53C829.531 337.222 830.905 312.809 833.705 288.554C836.612 263.295 839.571 238.036 844.327 213.094C855.635 153.223 879.52 99.6398 923.433 55.7272C958.785 20.3752 999.844 -5.72931 1045.82 -24.2772C1086.35 -40.6586 1129.2 -48.4794 1172.06 -56.3001C1203.82 -62.06 1235.47 -68.6126 1267.12 -74.9538C1305.86 -82.7217 1343.91 -94.4 1384.44 -90.3839C1411.86 -87.6889 1432.89 -75.4293 1448.48 -53.7108C1469.51 -24.4358 1475.64 9.80656 1478.02 44.7359C1479.98 73.4825 1476.59 102.123 1471.47 130.236C1463.01 176.262 1445.31 219.171 1423.8 260.6C1406.05 294.842 1387.29 328.715 1371.54 363.908C1351.3 409.142 1339.89 456.806 1340.47 506.954C1340.73 529.413 1341 551.765 1345.12 573.801C1352.25 612.112 1367.21 647.517 1387.18 680.65C1417.99 731.749 1449.59 782.32 1480.61 833.26C1485.15 840.711 1489.38 848.321 1493.66 856.142H1471.52C1469.57 852.495 1467.51 848.902 1465.39 845.362C1444.68 810.961 1423.7 776.666 1403.25 742.106C1384.54 710.506 1365.41 679.064 1348.24 646.619C1328.69 609.681 1319.44 569.256 1316.43 527.88C1314.63 503.52 1316.96 478.789 1318.12 454.217C1319.39 426.95 1326.36 400.687 1334.24 374.688C1345.86 336.43 1362.82 300.444 1380.74 264.88C1399.28 228.049 1418.1 191.375 1429.04 151.32C1440.03 111.107 1445.89 70.5233 1436.28 29.3057C1425.07 -18.7815 1395.48 -43.1951 1347.82 -46.0486C1327.05 -47.3168 1305.75 -45.0446 1285.14 -41.7683C1248.37 -35.9027 1211.9 -28.3461 1175.39 -20.8953C1123.23 -10.221 1073.03 5.79049 1026.64 32.7933C995.669 50.8656 968.35 73.2711 945.31 100.274C913.181 137.898 893.207 182.234 881.687 230.109C874.976 258.116 870.009 286.546 864.883 314.87C861.976 330.934 860.285 347.263 858.225 363.485C855.847 382.509 854.367 401.585 851.408 420.503C847.075 448.299 842.847 476.147 836.77 503.572C829.901 534.433 822.925 565.505 812.515 595.308C791.801 654.862 765.485 712.514 750.16 773.971C743.449 800.868 738.006 828.188 733.673 855.613C733.621 855.824 733.621 855.983 733.568 856.142H707.569C709.947 840.764 712.113 825.387 715.442 810.221C728.653 750.984 748.945 693.86 771.403 637.583Z" fill="url(#paint59_linear_215_41)"/>
<path opacity="0.59" d="M800.415 682.605C817.536 638.534 837.194 595.308 848.978 549.334C857.855 514.722 866.363 479.951 873.55 444.969C882.269 402.431 888.504 359.363 897.382 316.878C907.845 267.047 921.373 218.167 947.213 173.514C965.866 141.227 989.434 113.273 1018.71 90.4978C1058.66 59.3732 1103.79 38.0774 1153.04 26.2406C1186.12 18.3141 1219.62 12.29 1252.86 4.89196C1280.39 -1.23784 1308.03 -4.19705 1335.93 0.92873C1357.86 4.99765 1375.14 16.3589 1385.97 36.545C1401.24 64.9746 1399.92 95.2536 1394.85 125.427C1389.03 159.986 1375.77 192.379 1361.5 224.244C1342.06 267.575 1322.5 310.906 1310.19 356.985C1300.94 391.386 1295.03 426.316 1294.18 461.932C1293.44 491.63 1294.66 521.116 1300.1 550.603C1305.54 580.089 1313.15 608.677 1325.94 635.733C1346.18 678.536 1371.86 718.221 1396.75 758.382C1415.61 788.766 1433.37 819.785 1451.39 850.646C1452.45 852.495 1453.5 854.345 1454.51 856.247H1433.95C1432.74 853.922 1431.47 851.597 1430.15 849.325C1416.25 825.017 1402.56 800.603 1388.19 776.612C1364.88 737.614 1340.42 699.356 1317.75 660.041C1284.14 601.755 1270.88 537.603 1267.44 471.285C1265.75 438.734 1268.76 406.341 1273.25 373.948C1277.69 342.137 1284.67 310.959 1293.76 280.257C1303.38 247.547 1314.37 215.26 1323.3 182.392C1329.27 160.356 1334.61 138.109 1331.01 114.489C1326.52 84.4736 1308.03 66.1371 1277.59 65.8729C1261.52 65.7143 1245.3 65.8729 1229.5 68.1451C1201.97 72.0555 1174.02 75.4903 1147.38 83.0469C1080.8 102.018 1027.22 140.065 988.589 198.139C964.492 234.39 948.164 274.286 936.908 315.926C918.836 382.984 903.617 450.888 885.439 517.893C876.35 551.448 864.038 584.211 851.831 616.815C837.405 655.39 820.812 693.12 806.439 731.749C794.866 762.715 786.57 794.738 781.972 827.606C780.651 837.171 779.066 846.735 777.534 856.247H754.071C756.449 842.244 759.091 828.293 761.522 814.342C769.449 768.897 783.822 725.408 800.415 682.605Z" fill="url(#paint60_linear_215_41)"/>
</g>
</g>
<defs>
<linearGradient id="paint0_linear_215_41" x1="1632.87" y1="586.417" x2="1932.49" y2="586.417" gradientUnits="userSpaceOnUse">
<stop offset="0.0020175" stop-color="white"/>
<stop offset="0.2191" stop-color="#F5F6F7"/>
<stop offset="0.5831" stop-color="#DBDFE3"/>
<stop offset="1" stop-color="#B6BDC5"/>
</linearGradient>
<linearGradient id="paint1_linear_215_41" x1="1761.21" y1="20.5895" x2="1932.49" y2="20.5895" gradientUnits="userSpaceOnUse">
<stop offset="0.0020175" stop-color="white"/>
<stop offset="0.2191" stop-color="#F5F6F7"/>
<stop offset="0.5831" stop-color="#DBDFE3"/>
<stop offset="1" stop-color="#B6BDC5"/>
</linearGradient>
<linearGradient id="paint2_linear_215_41" x1="1361.83" y1="357.104" x2="1537.38" y2="357.104" gradientUnits="userSpaceOnUse">
<stop offset="0.0020175" stop-color="white"/>
<stop offset="0.2191" stop-color="#F5F6F7"/>
<stop offset="0.5831" stop-color="#DBDFE3"/>
<stop offset="1" stop-color="#B6BDC5"/>
</linearGradient>
<linearGradient id="paint3_linear_215_41" x1="1488.81" y1="673.524" x2="1819.37" y2="673.524" gradientUnits="userSpaceOnUse">
<stop offset="0.0020175" stop-color="white"/>
<stop offset="0.2191" stop-color="#F5F6F7"/>
<stop offset="0.5831" stop-color="#DBDFE3"/>
<stop offset="1" stop-color="#B6BDC5"/>
</linearGradient>
<linearGradient id="paint4_linear_215_41" x1="1039.44" y1="817.776" x2="1215.74" y2="817.776" gradientUnits="userSpaceOnUse">
<stop offset="0.0020175" stop-color="white"/>
<stop offset="0.2191" stop-color="#F5F6F7"/>
<stop offset="0.5831" stop-color="#DBDFE3"/>
<stop offset="1" stop-color="#B6BDC5"/>
</linearGradient>
<linearGradient id="paint5_linear_215_41" x1="1412.54" y1="357.104" x2="1610.9" y2="357.104" gradientUnits="userSpaceOnUse">
<stop offset="0.0020175" stop-color="white"/>
<stop offset="0.2191" stop-color="#F5F6F7"/>
<stop offset="0.5831" stop-color="#DBDFE3"/>
<stop offset="1" stop-color="#B6BDC5"/>
</linearGradient>
<linearGradient id="paint6_linear_215_41" x1="972.916" y1="780.137" x2="1269.79" y2="780.137" gradientUnits="userSpaceOnUse">
<stop offset="0.0020175" stop-color="white"/>
<stop offset="0.2191" stop-color="#F5F6F7"/>
<stop offset="0.5831" stop-color="#DBDFE3"/>
<stop offset="1" stop-color="#B6BDC5"/>
</linearGradient>
<linearGradient id="paint7_linear_215_41" x1="1702.9" y1="574.904" x2="1932.49" y2="574.904" gradientUnits="userSpaceOnUse">
<stop offset="0.0020175" stop-color="white"/>
<stop offset="0.2191" stop-color="#F5F6F7"/>
<stop offset="0.5831" stop-color="#DBDFE3"/>
<stop offset="1" stop-color="#B6BDC5"/>
</linearGradient>
<linearGradient id="paint8_linear_215_41" x1="1758.28" y1="565.398" x2="1932.49" y2="565.398" gradientUnits="userSpaceOnUse">
<stop offset="0.0020175" stop-color="white"/>
<stop offset="0.2191" stop-color="#F5F6F7"/>
<stop offset="0.5831" stop-color="#DBDFE3"/>
<stop offset="1" stop-color="#B6BDC5"/>
</linearGradient>
<linearGradient id="paint9_linear_215_41" x1="1816.49" y1="559.736" x2="1932.49" y2="559.736" gradientUnits="userSpaceOnUse">
<stop offset="0.0020175" stop-color="white"/>
<stop offset="0.2191" stop-color="#F5F6F7"/>
<stop offset="0.5831" stop-color="#DBDFE3"/>
<stop offset="1" stop-color="#B6BDC5"/>
</linearGradient>
<linearGradient id="paint10_linear_215_41" x1="1599.26" y1="93.8604" x2="1932.49" y2="93.8604" gradientUnits="userSpaceOnUse">
<stop offset="0.0020175" stop-color="white"/>
<stop offset="0.2191" stop-color="#F5F6F7"/>
<stop offset="0.5831" stop-color="#DBDFE3"/>
<stop offset="1" stop-color="#B6BDC5"/>
</linearGradient>
<linearGradient id="paint11_linear_215_41" x1="1718.84" y1="30.3869" x2="1932.49" y2="30.3869" gradientUnits="userSpaceOnUse">
<stop offset="0.0020175" stop-color="white"/>
<stop offset="0.2191" stop-color="#F5F6F7"/>
<stop offset="0.5831" stop-color="#DBDFE3"/>
<stop offset="1" stop-color="#B6BDC5"/>
</linearGradient>
<linearGradient id="paint12_linear_215_41" x1="1814.14" y1="17.2897" x2="1932.49" y2="17.2897" gradientUnits="userSpaceOnUse">
<stop offset="0.0020175" stop-color="white"/>
<stop offset="0.2191" stop-color="#F5F6F7"/>
<stop offset="0.5831" stop-color="#DBDFE3"/>
<stop offset="1" stop-color="#B6BDC5"/>
</linearGradient>
<linearGradient id="paint13_linear_215_41" x1="1679.36" y1="49.7286" x2="1932.49" y2="49.7286" gradientUnits="userSpaceOnUse">
<stop offset="0.0020175" stop-color="white"/>
<stop offset="0.2191" stop-color="#F5F6F7"/>
<stop offset="0.5831" stop-color="#DBDFE3"/>
<stop offset="1" stop-color="#B6BDC5"/>
</linearGradient>
<linearGradient id="paint14_linear_215_41" x1="1640.41" y1="69.792" x2="1932.49" y2="69.792" gradientUnits="userSpaceOnUse">
<stop offset="0.0020175" stop-color="white"/>
<stop offset="0.2191" stop-color="#F5F6F7"/>
<stop offset="0.5831" stop-color="#DBDFE3"/>
<stop offset="1" stop-color="#B6BDC5"/>
</linearGradient>
<linearGradient id="paint15_linear_215_41" x1="648.616" y1="357.103" x2="1365.22" y2="357.103" gradientUnits="userSpaceOnUse">
<stop offset="0.0020175" stop-color="white"/>
<stop offset="0.2191" stop-color="#F5F6F7"/>
<stop offset="0.5831" stop-color="#DBDFE3"/>
<stop offset="1" stop-color="#B6BDC5"/>
</linearGradient>
<linearGradient id="paint16_linear_215_41" x1="-12.9662" y1="547.836" x2="309.897" y2="547.836" gradientUnits="userSpaceOnUse">
<stop offset="0.0020175" stop-color="white"/>
<stop offset="0.2191" stop-color="#F5F6F7"/>
<stop offset="0.5831" stop-color="#DBDFE3"/>
<stop offset="1" stop-color="#B6BDC5"/>
</linearGradient>
<linearGradient id="paint17_linear_215_41" x1="922.548" y1="746.356" x2="1310.53" y2="746.356" gradientUnits="userSpaceOnUse">
<stop offset="0.0020175" stop-color="white"/>
<stop offset="0.2191" stop-color="#F5F6F7"/>
<stop offset="0.5831" stop-color="#DBDFE3"/>
<stop offset="1" stop-color="#B6BDC5"/>
</linearGradient>
<linearGradient id="paint18_linear_215_41" x1="1.58559" y1="461.625" x2="236.857" y2="461.625" gradientUnits="userSpaceOnUse">
<stop offset="0.0020175" stop-color="white"/>
<stop offset="0.2191" stop-color="#F5F6F7"/>
<stop offset="0.5831" stop-color="#DBDFE3"/>
<stop offset="1" stop-color="#B6BDC5"/>
</linearGradient>
<linearGradient id="paint19_linear_215_41" x1="-12.9659" y1="518.39" x2="371.315" y2="518.39" gradientUnits="userSpaceOnUse">
<stop offset="0.0020175" stop-color="white"/>
<stop offset="0.2191" stop-color="#F5F6F7"/>
<stop offset="0.5831" stop-color="#DBDFE3"/>
<stop offset="1" stop-color="#B6BDC5"/>
</linearGradient>
<linearGradient id="paint20_linear_215_41" x1="-12.9662" y1="357.104" x2="898.248" y2="357.104" gradientUnits="userSpaceOnUse">
<stop offset="0.0020175" stop-color="white"/>
<stop offset="0.2191" stop-color="#F5F6F7"/>
<stop offset="0.5831" stop-color="#DBDFE3"/>
<stop offset="1" stop-color="#B6BDC5"/>
</linearGradient>
<linearGradient id="paint21_linear_215_41" x1="-12.966" y1="-38.1381" x2="302.243" y2="-38.1381" gradientUnits="userSpaceOnUse">
<stop offset="0.0020175" stop-color="white"/>
<stop offset="0.2191" stop-color="#F5F6F7"/>
<stop offset="0.5831" stop-color="#DBDFE3"/>
<stop offset="1" stop-color="#B6BDC5"/>
</linearGradient>
<linearGradient id="paint22_linear_215_41" x1="-12.9662" y1="491.11" x2="437.515" y2="491.11" gradientUnits="userSpaceOnUse">
<stop offset="0.0020175" stop-color="white"/>
<stop offset="0.2191" stop-color="#F5F6F7"/>
<stop offset="0.5831" stop-color="#DBDFE3"/>
<stop offset="1" stop-color="#B6BDC5"/>
</linearGradient>
<linearGradient id="paint23_linear_215_41" x1="-12.9659" y1="700.29" x2="3.16496" y2="700.29" gradientUnits="userSpaceOnUse">
<stop offset="0.0020175" stop-color="white"/>
<stop offset="0.2191" stop-color="#F5F6F7"/>
<stop offset="0.5831" stop-color="#DBDFE3"/>
<stop offset="1" stop-color="#B6BDC5"/>
</linearGradient>
<linearGradient id="paint24_linear_215_41" x1="795.889" y1="497.108" x2="1417.75" y2="497.108" gradientUnits="userSpaceOnUse">
<stop offset="0.0020175" stop-color="white"/>
<stop offset="0.2191" stop-color="#F5F6F7"/>
<stop offset="0.5831" stop-color="#DBDFE3"/>
<stop offset="1" stop-color="#B6BDC5"/>
</linearGradient>
<linearGradient id="paint25_linear_215_41" x1="878.168" y1="698.921" x2="1347.36" y2="698.921" gradientUnits="userSpaceOnUse">
<stop offset="0.0020175" stop-color="white"/>
<stop offset="0.2191" stop-color="#F5F6F7"/>
<stop offset="0.5831" stop-color="#DBDFE3"/>
<stop offset="1" stop-color="#B6BDC5"/>
</linearGradient>
<linearGradient id="paint26_linear_215_41" x1="837.428" y1="610.534" x2="1382.35" y2="610.534" gradientUnits="userSpaceOnUse">
<stop offset="0.0020175" stop-color="white"/>
<stop offset="0.2191" stop-color="#F5F6F7"/>
<stop offset="0.5831" stop-color="#DBDFE3"/>
<stop offset="1" stop-color="#B6BDC5"/>
</linearGradient>
<linearGradient id="paint27_linear_215_41" x1="475.522" y1="357.105" x2="1140.53" y2="357.105" gradientUnits="userSpaceOnUse">
<stop offset="0.0020175" stop-color="white"/>
<stop offset="0.2191" stop-color="#F5F6F7"/>
<stop offset="0.5831" stop-color="#DBDFE3"/>
<stop offset="1" stop-color="#B6BDC5"/>
</linearGradient>
<linearGradient id="paint28_linear_215_41" x1="707.286" y1="378.251" x2="1493.2" y2="378.251" gradientUnits="userSpaceOnUse">
<stop offset="0.0020175" stop-color="white"/>
<stop offset="0.2191" stop-color="#F5F6F7"/>
<stop offset="0.5831" stop-color="#DBDFE3"/>
<stop offset="1" stop-color="#B6BDC5"/>
</linearGradient>
<linearGradient id="paint29_linear_215_41" x1="753.687" y1="423.013" x2="1454.14" y2="423.013" gradientUnits="userSpaceOnUse">
<stop offset="0.0020175" stop-color="white"/>
<stop offset="0.2191" stop-color="#F5F6F7"/>
<stop offset="0.5831" stop-color="#DBDFE3"/>
<stop offset="1" stop-color="#B6BDC5"/>
</linearGradient>
<linearGradient id="paint30_linear_215_41" x1="1783.12" y1="-1169.54" x2="1783.12" y2="988.711" gradientUnits="userSpaceOnUse">
<stop offset="0.0020175" stop-color="white"/>
<stop offset="0.2191" stop-color="#F5F6F7"/>
<stop offset="0.5831" stop-color="#DBDFE3"/>
<stop offset="1" stop-color="#B6BDC5"/>
</linearGradient>
<linearGradient id="paint31_linear_215_41" x1="1847.29" y1="-1169.54" x2="1847.29" y2="988.715" gradientUnits="userSpaceOnUse">
<stop offset="0.0020175" stop-color="white"/>
<stop offset="0.2191" stop-color="#F5F6F7"/>
<stop offset="0.5831" stop-color="#DBDFE3"/>
<stop offset="1" stop-color="#B6BDC5"/>
</linearGradient>
<linearGradient id="paint32_linear_215_41" x1="1450.05" y1="-1169.54" x2="1450.05" y2="988.713" gradientUnits="userSpaceOnUse">
<stop offset="0.0020175" stop-color="white"/>
<stop offset="0.2191" stop-color="#F5F6F7"/>
<stop offset="0.5831" stop-color="#DBDFE3"/>
<stop offset="1" stop-color="#B6BDC5"/>
</linearGradient>
<linearGradient id="paint33_linear_215_41" x1="1654.53" y1="-1169.54" x2="1654.53" y2="988.716" gradientUnits="userSpaceOnUse">
<stop offset="0.0020175" stop-color="white"/>
<stop offset="0.2191" stop-color="#F5F6F7"/>
<stop offset="0.5831" stop-color="#DBDFE3"/>
<stop offset="1" stop-color="#B6BDC5"/>
</linearGradient>
<linearGradient id="paint34_linear_215_41" x1="1128.03" y1="-1169.55" x2="1128.03" y2="988.717" gradientUnits="userSpaceOnUse">
<stop offset="0.0020175" stop-color="white"/>
<stop offset="0.2191" stop-color="#F5F6F7"/>
<stop offset="0.5831" stop-color="#DBDFE3"/>
<stop offset="1" stop-color="#B6BDC5"/>
</linearGradient>
<linearGradient id="paint35_linear_215_41" x1="1512.16" y1="-1169.54" x2="1512.16" y2="988.714" gradientUnits="userSpaceOnUse">
<stop offset="0.0020175" stop-color="white"/>
<stop offset="0.2191" stop-color="#F5F6F7"/>
<stop offset="0.5831" stop-color="#DBDFE3"/>
<stop offset="1" stop-color="#B6BDC5"/>
</linearGradient>
<linearGradient id="paint36_linear_215_41" x1="1121.79" y1="-1169.54" x2="1121.79" y2="988.716" gradientUnits="userSpaceOnUse">
<stop offset="0.0020175" stop-color="white"/>
<stop offset="0.2191" stop-color="#F5F6F7"/>
<stop offset="0.5831" stop-color="#DBDFE3"/>
<stop offset="1" stop-color="#B6BDC5"/>
</linearGradient>
<linearGradient id="paint37_linear_215_41" x1="1818.14" y1="-1169.54" x2="1818.14" y2="988.713" gradientUnits="userSpaceOnUse">
<stop offset="0.0020175" stop-color="white"/>
<stop offset="0.2191" stop-color="#F5F6F7"/>
<stop offset="0.5831" stop-color="#DBDFE3"/>
<stop offset="1" stop-color="#B6BDC5"/>
</linearGradient>
<linearGradient id="paint38_linear_215_41" x1="1845.82" y1="-1169.54" x2="1845.82" y2="988.709" gradientUnits="userSpaceOnUse">
<stop offset="0.0020175" stop-color="white"/>
<stop offset="0.2191" stop-color="#F5F6F7"/>
<stop offset="0.5831" stop-color="#DBDFE3"/>
<stop offset="1" stop-color="#B6BDC5"/>
</linearGradient>
<linearGradient id="paint39_linear_215_41" x1="1874.93" y1="-1169.54" x2="1874.93" y2="988.722" gradientUnits="userSpaceOnUse">
<stop offset="0.0020175" stop-color="white"/>
<stop offset="0.2191" stop-color="#F5F6F7"/>
<stop offset="0.5831" stop-color="#DBDFE3"/>
<stop offset="1" stop-color="#B6BDC5"/>
</linearGradient>
<linearGradient id="paint40_linear_215_41" x1="1766.32" y1="-1169.54" x2="1766.32" y2="988.713" gradientUnits="userSpaceOnUse">
<stop offset="0.0020175" stop-color="white"/>
<stop offset="0.2191" stop-color="#F5F6F7"/>
<stop offset="0.5831" stop-color="#DBDFE3"/>
<stop offset="1" stop-color="#B6BDC5"/>
</linearGradient>
<linearGradient id="paint41_linear_215_41" x1="1826.1" y1="-1169.54" x2="1826.1" y2="988.711" gradientUnits="userSpaceOnUse">
<stop offset="0.0020175" stop-color="white"/>
<stop offset="0.2191" stop-color="#F5F6F7"/>
<stop offset="0.5831" stop-color="#DBDFE3"/>
<stop offset="1" stop-color="#B6BDC5"/>
</linearGradient>
<linearGradient id="paint42_linear_215_41" x1="1873.76" y1="-1169.54" x2="1873.76" y2="988.716" gradientUnits="userSpaceOnUse">
<stop offset="0.0020175" stop-color="white"/>
<stop offset="0.2191" stop-color="#F5F6F7"/>
<stop offset="0.5831" stop-color="#DBDFE3"/>
<stop offset="1" stop-color="#B6BDC5"/>
</linearGradient>
<linearGradient id="paint43_linear_215_41" x1="1806.37" y1="-1169.54" x2="1806.37" y2="988.714" gradientUnits="userSpaceOnUse">
<stop offset="0.0020175" stop-color="white"/>
<stop offset="0.2191" stop-color="#F5F6F7"/>
<stop offset="0.5831" stop-color="#DBDFE3"/>
<stop offset="1" stop-color="#B6BDC5"/>
</linearGradient>
<linearGradient id="paint44_linear_215_41" x1="1786.89" y1="-1169.54" x2="1786.89" y2="988.713" gradientUnits="userSpaceOnUse">
<stop offset="0.0020175" stop-color="white"/>
<stop offset="0.2191" stop-color="#F5F6F7"/>
<stop offset="0.5831" stop-color="#DBDFE3"/>
<stop offset="1" stop-color="#B6BDC5"/>
</linearGradient>
<linearGradient id="paint45_linear_215_41" x1="1007.36" y1="-1169.54" x2="1007.36" y2="988.714" gradientUnits="userSpaceOnUse">
<stop offset="0.0020175" stop-color="white"/>
<stop offset="0.2191" stop-color="#F5F6F7"/>
<stop offset="0.5831" stop-color="#DBDFE3"/>
<stop offset="1" stop-color="#B6BDC5"/>
</linearGradient>
<linearGradient id="paint46_linear_215_41" x1="148.906" y1="-1169.54" x2="148.906" y2="988.712" gradientUnits="userSpaceOnUse">
<stop offset="0.0020175" stop-color="white"/>
<stop offset="0.2191" stop-color="#F5F6F7"/>
<stop offset="0.5831" stop-color="#DBDFE3"/>
<stop offset="1" stop-color="#B6BDC5"/>
</linearGradient>
<linearGradient id="paint47_linear_215_41" x1="1116.98" y1="-1169.54" x2="1116.98" y2="988.71" gradientUnits="userSpaceOnUse">
<stop offset="0.0020175" stop-color="white"/>
<stop offset="0.2191" stop-color="#F5F6F7"/>
<stop offset="0.5831" stop-color="#DBDFE3"/>
<stop offset="1" stop-color="#B6BDC5"/>
</linearGradient>
<linearGradient id="paint48_linear_215_41" x1="119.662" y1="-1169.54" x2="119.662" y2="988.715" gradientUnits="userSpaceOnUse">
<stop offset="0.0020175" stop-color="white"/>
<stop offset="0.2191" stop-color="#F5F6F7"/>
<stop offset="0.5831" stop-color="#DBDFE3"/>
<stop offset="1" stop-color="#B6BDC5"/>
</linearGradient>
<linearGradient id="paint49_linear_215_41" x1="179.615" y1="-1169.54" x2="179.615" y2="988.708" gradientUnits="userSpaceOnUse">
<stop offset="0.0020175" stop-color="white"/>
<stop offset="0.2191" stop-color="#F5F6F7"/>
<stop offset="0.5831" stop-color="#DBDFE3"/>
<stop offset="1" stop-color="#B6BDC5"/>
</linearGradient>
<linearGradient id="paint50_linear_215_41" x1="83.1207" y1="-1169.54" x2="83.1207" y2="988.715" gradientUnits="userSpaceOnUse">
<stop offset="0.0020175" stop-color="white"/>
<stop offset="0.2191" stop-color="#F5F6F7"/>
<stop offset="0.5831" stop-color="#DBDFE3"/>
<stop offset="1" stop-color="#B6BDC5"/>
</linearGradient>
<linearGradient id="paint51_linear_215_41" x1="443.082" y1="-1169.54" x2="443.082" y2="988.714" gradientUnits="userSpaceOnUse">
<stop offset="0.0020175" stop-color="white"/>
<stop offset="0.2191" stop-color="#F5F6F7"/>
<stop offset="0.5831" stop-color="#DBDFE3"/>
<stop offset="1" stop-color="#B6BDC5"/>
</linearGradient>
<linearGradient id="paint52_linear_215_41" x1="145.08" y1="-1169.54" x2="145.08" y2="988.72" gradientUnits="userSpaceOnUse">
<stop offset="0.0020175" stop-color="white"/>
<stop offset="0.2191" stop-color="#F5F6F7"/>
<stop offset="0.5831" stop-color="#DBDFE3"/>
<stop offset="1" stop-color="#B6BDC5"/>
</linearGradient>
<linearGradient id="paint53_linear_215_41" x1="212.715" y1="-1169.54" x2="212.715" y2="988.72" gradientUnits="userSpaceOnUse">
<stop offset="0.0020175" stop-color="white"/>
<stop offset="0.2191" stop-color="#F5F6F7"/>
<stop offset="0.5831" stop-color="#DBDFE3"/>
<stop offset="1" stop-color="#B6BDC5"/>
</linearGradient>
<linearGradient id="paint54_linear_215_41" x1="-4.45998" y1="-1169.54" x2="-4.45998" y2="988.721" gradientUnits="userSpaceOnUse">
<stop offset="0.0020175" stop-color="white"/>
<stop offset="0.2191" stop-color="#F5F6F7"/>
<stop offset="0.5831" stop-color="#DBDFE3"/>
<stop offset="1" stop-color="#B6BDC5"/>
</linearGradient>
<linearGradient id="paint55_linear_215_41" x1="1107.26" y1="-1169.54" x2="1107.26" y2="988.717" gradientUnits="userSpaceOnUse">
<stop offset="0.0020175" stop-color="white"/>
<stop offset="0.2191" stop-color="#F5F6F7"/>
<stop offset="0.5831" stop-color="#DBDFE3"/>
<stop offset="1" stop-color="#B6BDC5"/>
</linearGradient>
<linearGradient id="paint56_linear_215_41" x1="1113.21" y1="-1169.54" x2="1113.21" y2="988.712" gradientUnits="userSpaceOnUse">
<stop offset="0.0020175" stop-color="white"/>
<stop offset="0.2191" stop-color="#F5F6F7"/>
<stop offset="0.5831" stop-color="#DBDFE3"/>
<stop offset="1" stop-color="#B6BDC5"/>
</linearGradient>
<linearGradient id="paint57_linear_215_41" x1="1110.33" y1="-1169.54" x2="1110.33" y2="988.713" gradientUnits="userSpaceOnUse">
<stop offset="0.0020175" stop-color="white"/>
<stop offset="0.2191" stop-color="#F5F6F7"/>
<stop offset="0.5831" stop-color="#DBDFE3"/>
<stop offset="1" stop-color="#B6BDC5"/>
</linearGradient>
<linearGradient id="paint58_linear_215_41" x1="808.466" y1="-1169.54" x2="808.466" y2="988.714" gradientUnits="userSpaceOnUse">
<stop offset="0.0020175" stop-color="white"/>
<stop offset="0.2191" stop-color="#F5F6F7"/>
<stop offset="0.5831" stop-color="#DBDFE3"/>
<stop offset="1" stop-color="#B6BDC5"/>
</linearGradient>
<linearGradient id="paint59_linear_215_41" x1="1100.68" y1="-1169.54" x2="1100.68" y2="988.718" gradientUnits="userSpaceOnUse">
<stop offset="0.0020175" stop-color="white"/>
<stop offset="0.2191" stop-color="#F5F6F7"/>
<stop offset="0.5831" stop-color="#DBDFE3"/>
<stop offset="1" stop-color="#B6BDC5"/>
</linearGradient>
<linearGradient id="paint60_linear_215_41" x1="1104.35" y1="-1169.54" x2="1104.35" y2="988.714" gradientUnits="userSpaceOnUse">
<stop offset="0.0020175" stop-color="white"/>
<stop offset="0.2191" stop-color="#F5F6F7"/>
<stop offset="0.5831" stop-color="#DBDFE3"/>
<stop offset="1" stop-color="#B6BDC5"/>
</linearGradient>
</defs>
</svg>
